<svg version="1.1" viewBox="0.0 0.0 960.0 540.0" fill="none" stroke="none" stroke-linecap="square" stroke-miterlimit="10" xmlns:xlink="http://www.w3.org/1999/xlink" xmlns="http://www.w3.org/2000/svg"><clipPath id="g12e2ca1734f_0_625.0"><path d="m0 0l960.0 0l0 540.0l-960.0 0l0 -540.0z" clip-rule="nonzero"/></clipPath><g clip-path="url(#g12e2ca1734f_0_625.0)"><path fill="#000000" fill-opacity="0.0" d="m0 0l960.0 0l0 540.0l-960.0 0z" fill-rule="evenodd"/><path fill="#000000" fill-opacity="0.0" d="m17.086615 273.72964l335.2756 0l0 118.6142l-335.2756 0z" fill-rule="evenodd"/><path fill="#ffffff" d="m27.19599 306.08902q0 -4.796875 2.671875 -7.109375q2.218748 -1.921875 5.421873 -1.921875q3.578125 0 5.828125 2.34375q2.265625 2.328125 2.265625 6.4375q0 3.34375 -1.0 5.265625q-1.0 1.90625 -2.921875 2.96875q-1.90625 1.046875 -4.171875 1.046875q-3.624998 0 -5.859373 -2.328125q-2.234375 -2.328125 -2.234375 -6.703125zm3.015625 0q0 3.3125 1.4375 4.96875q1.4531231 1.65625 3.640623 1.65625q2.1875 0 3.625 -1.65625q1.453125 -1.671875 1.453125 -5.0625q0 -3.203125 -1.453125 -4.859375q-1.453125 -1.65625 -3.625 -1.65625q-2.1875 0 -3.640623 1.640625q-1.4375 1.640625 -1.4375 4.96875zm25.873274 8.640625l0 -17.28125l2.625 0l0 2.453125q1.90625 -2.84375 5.500004 -2.84375q1.5625 0 2.875 0.5625q1.3125 0.5625 1.953125 1.46875q0.65625 0.90625 0.921875 2.171875q0.15625 0.8125 0.15625 2.84375l0 10.625l-2.921875 0l0 -10.515625q0 -1.78125 -0.34375 -2.671875q-0.34375 -0.890625 -1.21875 -1.421875q-0.859375 -0.53125 -2.0312538 -0.53125q-1.875 0 -3.234375 1.1875q-1.359375 1.1875 -1.359375 4.515625l0 9.4375l-2.921875 0zm29.848026 0l0 -2.53125q-2.015625 2.921875 -5.46875 2.921875q-1.53125 0 -2.859375 -0.578125q-1.328125 -0.59375 -1.96875 -1.484375q-0.640625 -0.890625 -0.90625 -2.171875q-0.1875 -0.859375 -0.1875 -2.734375l0 -10.703125l2.9375 0l0 9.578125q0 2.296875 0.171875 3.09375q0.28125 1.15625 1.171875 1.828125q0.90625 0.65625 2.21875 0.65625q1.3125 0 2.46875 -0.671875q1.15625 -0.6875 1.640625 -1.84375q0.484375 -1.171875 0.484375 -3.375l0 -9.265625l2.921875 0l0 17.28125l-2.625 0zm-6.140625 -19.4375l2.171875 -4.546875l3.84375 0l-3.59375 4.546875l-2.421875 0zm13.363647 19.4375l0 -17.28125l2.609375 0l0 2.421875q0.8125 -1.265625 2.15625 -2.03125q1.359375 -0.78125 3.09375 -0.78125q1.921875 0 3.140625 0.796875q1.234375 0.796875 1.734375 2.234375q2.046875 -3.03125 5.34375 -3.03125q2.5625 0 3.9375 1.421875q1.390625 1.421875 1.390625 4.390625l0 11.859375l-2.90625 0l0 -10.890625q0 -1.75 -0.296875 -2.515625q-0.28125 -0.78125 -1.03125 -1.25q-0.734375 -0.484375 -1.75 -0.484375q-1.828125 0 -3.03125 1.21875q-1.203125 1.21875 -1.203125 3.875l0 10.046875l-2.921875 0l0 -11.234375q0 -1.953125 -0.71875 -2.921875q-0.71875 -0.984375 -2.34375 -0.984375q-1.234375 0 -2.296875 0.65625q-1.046875 0.65625 -1.515625 1.90625q-0.46875 1.25 -0.46875 3.609375l0 8.96875l-2.921875 0zm39.590706 -5.5625l3.015625 0.375q-0.703125 2.65625 -2.640625 4.125q-1.9375 1.453125 -4.953125 1.453125q-3.7968674 0 -6.0156174 -2.328125q-2.21875 -2.34375 -2.21875 -6.5625q0 -4.359375 2.25 -6.765625q2.25 -2.40625 5.8281174 -2.40625q3.46875 0 5.65625 2.359375q2.203125 2.359375 2.203125 6.640625q0 0.265625 -0.015625 0.78125l-12.890617 0q0.15625 2.84375 1.609375 4.359375q1.453125 1.515625 3.6093674 1.515625q1.609375 0 2.75 -0.84375q1.140625 -0.84375 1.8125 -2.703125zm-9.624992 -4.734375l9.656242 0q-0.203125 -2.1875 -1.109375 -3.28125q-1.40625 -1.6875 -3.625 -1.6875q-2.0156174 0 -3.3906174 1.359375q-1.375 1.34375 -1.53125 3.609375zm16.30114 10.296875l0 -17.28125l2.625 0l0 2.625q1.015625 -1.84375 1.859375 -2.421875q0.859375 -0.59375 1.890625 -0.59375q1.484375 0 3.0 0.9375l-1.0 2.71875q-1.078125 -0.625 -2.15625 -0.625q-0.953125 0 -1.71875 0.578125q-0.765625 0.578125 -1.09375 1.59375q-0.484375 1.5625 -0.484375 3.421875l0 9.046875l-2.921875 0zm10.036026 -8.640625q0 -4.796875 2.671875 -7.109375q2.21875 -1.921875 5.421875 -1.921875q3.578125 0 5.828125 2.34375q2.265625 2.328125 2.265625 6.4375q0 3.34375 -1.0 5.265625q-1.0 1.90625 -2.921875 2.96875q-1.90625 1.046875 -4.171875 1.046875q-3.625 0 -5.859375 -2.328125q-2.234375 -2.328125 -2.234375 -6.703125zm3.015625 0q0 3.3125 1.4375 4.96875q1.453125 1.65625 3.640625 1.65625q2.1875 0 3.625 -1.65625q1.453125 -1.671875 1.453125 -5.0625q0 -3.203125 -1.453125 -4.859375q-1.453125 -1.65625 -3.625 -1.65625q-2.1875 0 -3.640625 1.640625q-1.4375 1.640625 -1.4375 4.96875zm37.0764 8.640625l0 -2.1875q-1.640625 2.578125 -4.828125 2.578125q-2.0625 0 -3.796875 -1.140625q-1.734375 -1.140625 -2.6875 -3.171875q-0.953125 -2.046875 -0.953125 -4.703125q0 -2.59375 0.859375 -4.6875q0.859375 -2.109375 2.578125 -3.234375q1.734375 -1.125 3.875 -1.125q1.5625 0 2.78125 0.65625q1.21875 0.65625 1.984375 1.71875l0 -8.5625l2.90625 0l0 23.859375l-2.71875 0zm-9.25 -8.625q0 3.3125 1.390625 4.96875q1.40625 1.640625 3.3125 1.640625q1.90625 0 3.25 -1.5625q1.34375 -1.578125 1.34375 -4.796875q0 -3.546875 -1.375 -5.203125q-1.359375 -1.671875 -3.359375 -1.671875q-1.953125 0 -3.265625 1.59375q-1.296875 1.59375 -1.296875 5.03125zm28.410522 3.0625l3.015625 0.375q-0.703125 2.65625 -2.640625 4.125q-1.9375 1.453125 -4.953125 1.453125q-3.796875 0 -6.015625 -2.328125q-2.21875 -2.34375 -2.21875 -6.5625q0 -4.359375 2.25 -6.765625q2.25 -2.40625 5.828125 -2.40625q3.46875 0 5.65625 2.359375q2.203125 2.359375 2.203125 6.640625q0 0.265625 -0.015625 0.78125l-12.890625 0q0.15625 2.84375 1.609375 4.359375q1.453125 1.515625 3.609375 1.515625q1.609375 0 2.75 -0.84375q1.140625 -0.84375 1.8125 -2.703125zm-9.625 -4.734375l9.65625 0q-0.203125 -2.1875 -1.109375 -3.28125q-1.40625 -1.6875 -3.625 -1.6875q-2.015625 0 -3.390625 1.359375q-1.375 1.34375 -1.53125 3.609375zm36.904526 10.296875l0 -2.53125q-2.015625 2.921875 -5.46875 2.921875q-1.53125 0 -2.859375 -0.578125q-1.328125 -0.59375 -1.96875 -1.484375q-0.640625 -0.890625 -0.90625 -2.171875q-0.1875 -0.859375 -0.1875 -2.734375l0 -10.703125l2.9375 0l0 9.578125q0 2.296875 0.171875 3.09375q0.28125 1.15625 1.171875 1.828125q0.90625 0.65625 2.21875 0.65625q1.3125 0 2.46875 -0.671875q1.15625 -0.6875 1.640625 -1.84375q0.484375 -1.171875 0.484375 -3.375l0 -9.265625l2.921875 0l0 17.28125l-2.625 0zm7.1917725 0l0 -17.28125l2.625 0l0 2.625q1.015625 -1.84375 1.859375 -2.421875q0.859375 -0.59375 1.890625 -0.59375q1.484375 0 3.0 0.9375l-1.0 2.71875q-1.078125 -0.625 -2.15625 -0.625q-0.953125 0 -1.71875 0.578125q-0.765625 0.578125 -1.09375 1.59375q-0.484375 1.5625 -0.484375 3.421875l0 9.046875l-2.921875 0zm11.129776 0l0 -17.28125l2.625 0l0 2.453125q1.90625 -2.84375 5.5 -2.84375q1.5625 0 2.875 0.5625q1.3125 0.5625 1.953125 1.46875q0.65625 0.90625 0.921875 2.171875q0.15625 0.8125 0.15625 2.84375l0 10.625l-2.921875 0l0 -10.515625q0 -1.78125 -0.34375 -2.671875q-0.34375 -0.890625 -1.21875 -1.421875q-0.859375 -0.53125 -2.03125 -0.53125q-1.875 0 -3.234375 1.1875q-1.359375 1.1875 -1.359375 4.515625l0 9.4375l-2.921875 0zm29.801147 -2.125q-1.625 1.375 -3.125 1.953125q-1.5 0.5625 -3.234375 0.5625q-2.84375 0 -4.375 -1.390625q-1.53125 -1.390625 -1.53125 -3.5625q0 -1.265625 0.578125 -2.3125q0.578125 -1.046875 1.515625 -1.671875q0.9375 -0.640625 2.109375 -0.96875q0.859375 -0.234375 2.59375 -0.4375q3.546875 -0.421875 5.234375 -1.015625q0.015625 -0.609375 0.015625 -0.765625q0 -1.78125 -0.828125 -2.515625q-1.125 -1.0 -3.34375 -1.0q-2.0625 0 -3.046875 0.734375q-0.984375 0.71875 -1.453125 2.546875l-2.875 -0.390625q0.390625 -1.828125 1.28125 -2.953125q0.90625 -1.140625 2.59375 -1.75q1.703125 -0.609375 3.921875 -0.609375q2.21875 0 3.59375 0.53125q1.390625 0.515625 2.03125 1.3125q0.65625 0.78125 0.921875 1.984375q0.140625 0.75 0.140625 2.703125l0 3.90625q0 4.078125 0.1875 5.15625q0.1875 1.078125 0.75 2.078125l-3.0625 0q-0.453125 -0.90625 -0.59375 -2.125zm-0.234375 -6.546875q-1.59375 0.65625 -4.78125 1.109375q-1.8125 0.25 -2.5625 0.578125q-0.75 0.328125 -1.15625 0.953125q-0.40625 0.625 -0.40625 1.390625q0 1.171875 0.890625 1.953125q0.890625 0.78125 2.59375 0.78125q1.6875 0 3.0 -0.734375q1.328125 -0.75 1.953125 -2.03125q0.46875 -0.984375 0.46875 -2.921875l0 -1.078125zm6.3323975 3.515625l2.890625 -0.453125q0.25 1.734375 1.359375 2.671875q1.109375 0.921875 3.109375 0.921875q2.03125 0 3.0 -0.8125q0.984375 -0.828125 0.984375 -1.9375q0 -1.0 -0.875 -1.5625q-0.59375 -0.390625 -2.984375 -1.0q-3.234375 -0.8125 -4.484375 -1.40625q-1.234375 -0.59375 -1.875 -1.640625q-0.640625 -1.046875 -0.640625 -2.3125q0 -1.15625 0.53125 -2.140625q0.53125 -0.984375 1.4375 -1.640625q0.6875 -0.5 1.859375 -0.84375q1.1875 -0.359375 2.53125 -0.359375q2.03125 0 3.5625 0.59375q1.546875 0.578125 2.28125 1.578125q0.734375 1.0 1.015625 2.671875l-2.875 0.390625q-0.1875 -1.328125 -1.125 -2.078125q-0.9375 -0.75 -2.640625 -0.75q-2.03125 0 -2.890625 0.671875q-0.859375 0.65625 -0.859375 1.5625q0 0.5625 0.359375 1.015625q0.359375 0.484375 1.125 0.78125q0.4375 0.171875 2.578125 0.75q3.109375 0.828125 4.34375 1.359375q1.234375 0.53125 1.921875 1.546875q0.703125 1.0 0.703125 2.5q0 1.46875 -0.859375 2.765625q-0.84375 1.28125 -2.453125 2.0q-1.609375 0.703125 -3.65625 0.703125q-3.359375 0 -5.125 -1.390625q-1.765625 -1.40625 -2.25 -4.15625z" fill-rule="nonzero"/><path fill="#ffffff" d="m48.81499 352.60464q-1.625 1.375 -3.125 1.953125q-1.5 0.5625 -3.234375 0.5625q-2.84375 0 -4.375 -1.390625q-1.53125 -1.390625 -1.53125 -3.5625q0 -1.265625 0.578125 -2.3125q0.578125 -1.046875 1.515625 -1.671875q0.9375 -0.640625 2.109375 -0.96875q0.859375 -0.234375 2.59375 -0.4375q3.546875 -0.421875 5.234375 -1.015625q0.015625 -0.609375 0.015625 -0.765625q0 -1.78125 -0.828125 -2.515625q-1.125 -1.0 -3.34375 -1.0q-2.0625 0 -3.046875 0.734375q-0.984375 0.71875 -1.453125 2.546875l-2.875 -0.390625q0.390625 -1.828125 1.28125 -2.953125q0.90625 -1.140625 2.59375 -1.75q1.703125 -0.609375 3.921875 -0.609375q2.21875 0 3.59375 0.53125q1.390625 0.515625 2.03125 1.3125q0.65625 0.78125 0.921875 1.984375q0.140625 0.75 0.140625 2.703125l0 3.90625q0 4.078125 0.1875 5.15625q0.1875 1.078125 0.75 2.078125l-3.0625 0q-0.453125 -0.90625 -0.59375 -2.125zm-0.234375 -6.546875q-1.59375 0.65625 -4.78125 1.109375q-1.8125 0.25 -2.5625 0.578125q-0.75 0.328125 -1.15625 0.953125q-0.40625 0.625 -0.40625 1.390625q0 1.171875 0.890625 1.953125q0.890625 0.78125 2.59375 0.78125q1.6875 0 3.0 -0.734375q1.328125 -0.75 1.953125 -2.03125q0.46875 -0.984375 0.46875 -2.921875l0 -1.078125zm15.59203 3.515625l2.890625 -0.453125q0.25 1.734375 1.359375 2.671875q1.109375 0.921875 3.109375 0.921875q2.03125 0 3.0 -0.8125q0.984375 -0.828125 0.984375 -1.9375q0 -1.0 -0.875 -1.5625q-0.59375 -0.390625 -2.984375 -1.0q-3.234375 -0.8125 -4.484375 -1.40625q-1.234375 -0.59375 -1.875 -1.640625q-0.640625 -1.046875 -0.640625 -2.3125q0 -1.15625 0.53125 -2.140625q0.53125 -0.984375 1.4375 -1.640625q0.6875 -0.5 1.859375 -0.84375q1.1875 -0.359375 2.53125 -0.359375q2.03125 0 3.5625 0.59375q1.546875 0.578125 2.28125 1.578125q0.734375 1.0 1.015625 2.671875l-2.875 0.390625q-0.1875 -1.328125 -1.125 -2.078125q-0.9375 -0.75 -2.640625 -0.75q-2.03125 0 -2.890625 0.671875q-0.859375 0.65625 -0.859375 1.5625q0 0.5625 0.359375 1.015625q0.359375 0.484375 1.125 0.78125q0.4375 0.171875 2.578125 0.75q3.109375 0.828125 4.34375 1.359375q1.234375 0.53125 1.921875 1.546875q0.703125 1.0 0.703125 2.5q0 1.46875 -0.859375 2.765625q-0.84375 1.28125 -2.453125 2.0q-1.609375 0.703125 -3.65625 0.703125q-3.359375 0 -5.125 -1.390625q-1.765625 -1.40625 -2.25 -4.15625zm29.664062 -0.40625l3.015625 0.375q-0.703125 2.65625 -2.640625 4.125q-1.9375 1.453125 -4.953125 1.453125q-3.796875 0 -6.015625 -2.328125q-2.21875 -2.34375 -2.21875 -6.5625q0 -4.359375 2.25 -6.765625q2.25 -2.40625 5.828125 -2.40625q3.46875 0 5.65625 2.359375q2.203125 2.359375 2.203125 6.640625q0 0.265625 -0.015625 0.78125l-12.890625 0q0.15625 2.84375 1.609375 4.359375q1.453125 1.515625 3.609375 1.515625q1.609375 0 2.75 -0.84375q1.140625 -0.84375 1.8125 -2.703125zm-9.625 -4.734375l9.65625 0q-0.203125 -2.1875 -1.109375 -3.28125q-1.40625 -1.6875 -3.625 -1.6875q-2.015625 0 -3.390625 1.359375q-1.375 1.34375 -1.53125 3.609375zm16.301147 10.296875l0 -17.28125l2.625 0l0 2.625q1.015625 -1.84375 1.859375 -2.421875q0.859375 -0.59375 1.890625 -0.59375q1.484375 0 3.0 0.9375l-1.0 2.71875q-1.078125 -0.625 -2.15625 -0.625q-0.953125 0 -1.71875 0.578125q-0.765625 0.578125 -1.09375 1.59375q-0.484375 1.5625 -0.484375 3.421875l0 9.046875l-2.921875 0zm22.957901 -5.5625l3.015625 0.375q-0.703125 2.65625 -2.640625 4.125q-1.9375 1.453125 -4.953125 1.453125q-3.796875 0 -6.015625 -2.328125q-2.21875 -2.34375 -2.21875 -6.5625q0 -4.359375 2.25 -6.765625q2.25 -2.40625 5.828125 -2.40625q3.46875 0 5.65625 2.359375q2.203125 2.359375 2.203125 6.640625q0 0.265625 -0.015625 0.78125l-12.890625 0q0.15625 2.84375 1.609375 4.359375q1.453125 1.515625 3.609375 1.515625q1.609375 0 2.75 -0.84375q1.140625 -0.84375 1.8125 -2.703125zm-9.625 -4.734375l9.65625 0q-0.203125 -2.1875 -1.109375 -3.28125q-1.40625 -1.6875 -3.625 -1.6875q-2.015625 0 -3.390625 1.359375q-1.375 1.34375 -1.53125 3.609375zm16.33239 10.296875l0 -17.28125l2.609375 0l0 2.421875q0.8125 -1.265625 2.15625 -2.03125q1.359375 -0.78125 3.09375 -0.78125q1.921875 0 3.140625 0.796875q1.234375 0.796875 1.734375 2.234375q2.046875 -3.03125 5.34375 -3.03125q2.5625 0 3.9375 1.421875q1.390625 1.421875 1.390625 4.390625l0 11.859375l-2.90625 0l0 -10.890625q0 -1.75 -0.296875 -2.515625q-0.28125 -0.78125 -1.03125 -1.25q-0.734375 -0.484375 -1.75 -0.484375q-1.828125 0 -3.03125 1.21875q-1.203125 1.21875 -1.203125 3.875l0 10.046875l-2.921875 0l0 -11.234375q0 -1.953125 -0.71875 -2.921875q-0.71875 -0.984375 -2.34375 -0.984375q-1.234375 0 -2.296875 0.65625q-1.046875 0.65625 -1.515625 1.90625q-0.46875 1.25 -0.46875 3.609375l0 8.96875l-2.921875 0zm48.28784 -2.125q-1.625 1.375 -3.125 1.953125q-1.5 0.5625 -3.234375 0.5625q-2.84375 0 -4.375 -1.390625q-1.53125 -1.390625 -1.53125 -3.5625q0 -1.265625 0.578125 -2.3125q0.578125 -1.046875 1.515625 -1.671875q0.9375 -0.640625 2.109375 -0.96875q0.859375 -0.234375 2.59375 -0.4375q3.546875 -0.421875 5.234375 -1.015625q0.015625 -0.609375 0.015625 -0.765625q0 -1.78125 -0.828125 -2.515625q-1.125 -1.0 -3.34375 -1.0q-2.0625 0 -3.046875 0.734375q-0.984375 0.71875 -1.453125 2.546875l-2.875 -0.390625q0.390625 -1.828125 1.28125 -2.953125q0.90625 -1.140625 2.59375 -1.75q1.703125 -0.609375 3.921875 -0.609375q2.21875 0 3.59375 0.53125q1.390625 0.515625 2.03125 1.3125q0.65625 0.78125 0.921875 1.984375q0.140625 0.75 0.140625 2.703125l0 3.90625q0 4.078125 0.1875 5.15625q0.1875 1.078125 0.75 2.078125l-3.0625 0q-0.453125 -0.90625 -0.59375 -2.125zm-0.234375 -6.546875q-1.59375 0.65625 -4.78125 1.109375q-1.8125 0.25 -2.5625 0.578125q-0.75 0.328125 -1.15625 0.953125q-0.40625 0.625 -0.40625 1.390625q0 1.171875 0.890625 1.953125q0.890625 0.78125 2.59375 0.78125q1.6875 0 3.0 -0.734375q1.328125 -0.75 1.953125 -2.03125q0.46875 -0.984375 0.46875 -2.921875l0 -1.078125zm7.5042725 8.671875l0 -17.28125l2.609375 0l0 2.421875q0.8125 -1.265625 2.15625 -2.03125q1.359375 -0.78125 3.09375 -0.78125q1.921875 0 3.140625 0.796875q1.234375 0.796875 1.734375 2.234375q2.046875 -3.03125 5.34375 -3.03125q2.5625 0 3.9375 1.421875q1.390625 1.421875 1.390625 4.390625l0 11.859375l-2.90625 0l0 -10.890625q0 -1.75 -0.296875 -2.515625q-0.28125 -0.78125 -1.03125 -1.25q-0.734375 -0.484375 -1.75 -0.484375q-1.828125 0 -3.03125 1.21875q-1.203125 1.21875 -1.203125 3.875l0 10.046875l-2.921875 0l0 -11.234375q0 -1.953125 -0.71875 -2.921875q-0.71875 -0.984375 -2.34375 -0.984375q-1.234375 0 -2.296875 0.65625q-1.046875 0.65625 -1.515625 1.90625q-0.46875 1.25 -0.46875 3.609375l0 8.96875l-2.921875 0zm26.668839 -8.640625q0 -4.796875 2.671875 -7.109375q2.21875 -1.921875 5.421875 -1.921875q3.578125 0 5.828125 2.34375q2.265625 2.328125 2.265625 6.4375q0 3.34375 -1.0 5.265625q-1.0 1.90625 -2.921875 2.96875q-1.90625 1.046875 -4.171875 1.046875q-3.625 0 -5.859375 -2.328125q-2.234375 -2.328125 -2.234375 -6.703125zm3.015625 0q0 3.3125 1.4375 4.96875q1.453125 1.65625 3.640625 1.65625q2.1875 0 3.625 -1.65625q1.453125 -1.671875 1.453125 -5.0625q0 -3.203125 -1.453125 -4.859375q-1.453125 -1.65625 -3.625 -1.65625q-2.1875 0 -3.640625 1.640625q-1.4375 1.640625 -1.4375 4.96875zm15.441772 3.484375l2.890625 -0.453125q0.25 1.734375 1.359375 2.671875q1.109375 0.921875 3.109375 0.921875q2.03125 0 3.0 -0.8125q0.984375 -0.828125 0.984375 -1.9375q0 -1.0 -0.875 -1.5625q-0.59375 -0.390625 -2.984375 -1.0q-3.234375 -0.8125 -4.484375 -1.40625q-1.234375 -0.59375 -1.875 -1.640625q-0.640625 -1.046875 -0.640625 -2.3125q0 -1.15625 0.53125 -2.140625q0.53125 -0.984375 1.4375 -1.640625q0.6875 -0.5 1.859375 -0.84375q1.1875 -0.359375 2.53125 -0.359375q2.03125 0 3.5625 0.59375q1.546875 0.578125 2.28125 1.578125q0.734375 1.0 1.015625 2.671875l-2.875 0.390625q-0.1875 -1.328125 -1.125 -2.078125q-0.9375 -0.75 -2.640625 -0.75q-2.03125 0 -2.890625 0.671875q-0.859375 0.65625 -0.859375 1.5625q0 0.5625 0.359375 1.015625q0.359375 0.484375 1.125 0.78125q0.4375 0.171875 2.578125 0.75q3.109375 0.828125 4.34375 1.359375q1.234375 0.53125 1.921875 1.546875q0.703125 1.0 0.703125 2.5q0 1.46875 -0.859375 2.765625q-0.84375 1.28125 -2.453125 2.0q-1.609375 0.703125 -3.65625 0.703125q-3.359375 0 -5.125 -1.390625q-1.765625 -1.40625 -2.25 -4.15625zm24.226562 2.53125l0.421875 2.59375q-1.234375 0.265625 -2.21875 0.265625q-1.59375 0 -2.46875 -0.5q-0.875 -0.515625 -1.234375 -1.328125q-0.359375 -0.828125 -0.359375 -3.46875l0 -9.9375l-2.15625 0l0 -2.28125l2.15625 0l0 -4.28125l2.90625 -1.75l0 6.03125l2.953125 0l0 2.28125l-2.953125 0l0 10.109375q0 1.25 0.15625 1.609375q0.15625 0.359375 0.5 0.578125q0.359375 0.203125 1.015625 0.203125q0.484375 0 1.28125 -0.125zm2.8377686 2.625l0 -17.28125l2.625 0l0 2.625q1.015625 -1.84375 1.859375 -2.421875q0.859375 -0.59375 1.890625 -0.59375q1.484375 0 3.0 0.9375l-1.0 2.71875q-1.078125 -0.625 -2.15625 -0.625q-0.953125 0 -1.71875 0.578125q-0.765625 0.578125 -1.09375 1.59375q-0.484375 1.5625 -0.484375 3.421875l0 9.046875l-2.921875 0zm22.395386 -2.125q-1.625 1.375 -3.125 1.953125q-1.5 0.5625 -3.234375 0.5625q-2.84375 0 -4.375 -1.390625q-1.53125 -1.390625 -1.53125 -3.5625q0 -1.265625 0.578125 -2.3125q0.578125 -1.046875 1.515625 -1.671875q0.9375 -0.640625 2.109375 -0.96875q0.859375 -0.234375 2.59375 -0.4375q3.546875 -0.421875 5.234375 -1.015625q0.015625 -0.609375 0.015625 -0.765625q0 -1.78125 -0.828125 -2.515625q-1.125 -1.0 -3.34375 -1.0q-2.0625 0 -3.046875 0.734375q-0.984375 0.71875 -1.453125 2.546875l-2.875 -0.390625q0.390625 -1.828125 1.28125 -2.953125q0.90625 -1.140625 2.59375 -1.75q1.703125 -0.609375 3.921875 -0.609375q2.21875 0 3.59375 0.53125q1.390625 0.515625 2.03125 1.3125q0.65625 0.78125 0.921875 1.984375q0.140625 0.75 0.140625 2.703125l0 3.90625q0 4.078125 0.1875 5.15625q0.1875 1.078125 0.75 2.078125l-3.0625 0q-0.453125 -0.90625 -0.59375 -2.125zm-0.234375 -6.546875q-1.59375 0.65625 -4.78125 1.109375q-1.8125 0.25 -2.5625 0.578125q-0.75 0.328125 -1.15625 0.953125q-0.40625 0.625 -0.40625 1.390625q0 1.171875 0.890625 1.953125q0.890625 0.78125 2.59375 0.78125q1.6875 0 3.0 -0.734375q1.328125 -0.75 1.953125 -2.03125q0.46875 -0.984375 0.46875 -2.921875l0 -1.078125zm18.707397 8.671875l0 -2.1875q-1.640625 2.578125 -4.828125 2.578125q-2.0625 0 -3.796875 -1.140625q-1.734375 -1.140625 -2.6875 -3.171875q-0.953125 -2.046875 -0.953125 -4.703125q0 -2.59375 0.859375 -4.6875q0.859375 -2.109375 2.578125 -3.234375q1.734375 -1.125 3.875 -1.125q1.5625 0 2.78125 0.65625q1.21875 0.65625 1.984375 1.71875l0 -8.5625l2.90625 0l0 23.859375l-2.71875 0zm-9.25 -8.625q0 3.3125 1.390625 4.96875q1.40625 1.640625 3.3125 1.640625q1.90625 0 3.25 -1.5625q1.34375 -1.578125 1.34375 -4.796875q0 -3.546875 -1.375 -5.203125q-1.359375 -1.671875 -3.359375 -1.671875q-1.953125 0 -3.265625 1.59375q-1.296875 1.59375 -1.296875 5.03125zm27.848022 6.5q-1.625 1.375 -3.125 1.953125q-1.5 0.5625 -3.234375 0.5625q-2.84375 0 -4.375 -1.390625q-1.53125 -1.390625 -1.53125 -3.5625q0 -1.265625 0.578125 -2.3125q0.578125 -1.046875 1.515625 -1.671875q0.9375 -0.640625 2.109375 -0.96875q0.859375 -0.234375 2.59375 -0.4375q3.546875 -0.421875 5.234375 -1.015625q0.015625 -0.609375 0.015625 -0.765625q0 -1.78125 -0.828125 -2.515625q-1.125 -1.0 -3.34375 -1.0q-2.0625 0 -3.046875 0.734375q-0.984375 0.71875 -1.453125 2.546875l-2.875 -0.390625q0.390625 -1.828125 1.28125 -2.953125q0.90625 -1.140625 2.59375 -1.75q1.703125 -0.609375 3.921875 -0.609375q2.21875 0 3.59375 0.53125q1.390625 0.515625 2.03125 1.3125q0.65625 0.78125 0.921875 1.984375q0.140625 0.75 0.140625 2.703125l0 3.90625q0 4.078125 0.1875 5.15625q0.1875 1.078125 0.75 2.078125l-3.0625 0q-0.453125 -0.90625 -0.59375 -2.125zm-0.234375 -6.546875q-1.59375 0.65625 -4.78125 1.109375q-1.8125 0.25 -2.5625 0.578125q-0.75 0.328125 -1.15625 0.953125q-0.40625 0.625 -0.40625 1.390625q0 1.171875 0.890625 1.953125q0.890625 0.78125 2.59375 0.78125q1.6875 0 3.0 -0.734375q1.328125 -0.75 1.953125 -2.03125q0.46875 -0.984375 0.46875 -2.921875l0 -1.078125zm6.3323975 3.515625l2.890625 -0.453125q0.25 1.734375 1.359375 2.671875q1.109375 0.921875 3.109375 0.921875q2.03125 0 3.0 -0.8125q0.984375 -0.828125 0.984375 -1.9375q0 -1.0 -0.875 -1.5625q-0.59375 -0.390625 -2.984375 -1.0q-3.234375 -0.8125 -4.484375 -1.40625q-1.234375 -0.59375 -1.875 -1.640625q-0.640625 -1.046875 -0.640625 -2.3125q0 -1.15625 0.53125 -2.140625q0.53125 -0.984375 1.4375 -1.640625q0.6875 -0.5 1.859375 -0.84375q1.1875 -0.359375 2.53125 -0.359375q2.03125 0 3.5625 0.59375q1.546875 0.578125 2.28125 1.578125q0.734375 1.0 1.015625 2.671875l-2.875 0.390625q-0.1875 -1.328125 -1.125 -2.078125q-0.9375 -0.75 -2.640625 -0.75q-2.03125 0 -2.890625 0.671875q-0.859375 0.65625 -0.859375 1.5625q0 0.5625 0.359375 1.015625q0.359375 0.484375 1.125 0.78125q0.4375 0.171875 2.578125 0.75q3.109375 0.828125 4.34375 1.359375q1.234375 0.53125 1.921875 1.546875q0.703125 1.0 0.703125 2.5q0 1.46875 -0.859375 2.765625q-0.84375 1.28125 -2.453125 2.0q-1.609375 0.703125 -3.65625 0.703125q-3.359375 0 -5.125 -1.390625q-1.765625 -1.40625 -2.25 -4.15625z" fill-rule="nonzero"/><path fill="#000000" fill-opacity="0.0" d="m435.11023 323.65353l500.12598 -5.9212646" fill-rule="evenodd"/><path stroke="#ffffff" stroke-width="1.0" stroke-linejoin="round" stroke-linecap="butt" d="m435.11023 323.65353l500.12598 -5.9212646" fill-rule="evenodd"/><path fill="#000000" fill-opacity="0.0" d="m425.50394 218.19948l318.86612 0l0 93.732285l-318.86612 0z" fill-rule="evenodd"/><path fill="#ffffff" d="m446.89456 254.68636q-1.5 1.265625 -2.890625 1.7968597q-1.375 0.515625 -2.953125 0.515625q-2.625 0 -4.03125 -1.2812347q-1.40625 -1.28125 -1.40625 -3.265625q0 -1.171875 0.53125 -2.140625q0.53125 -0.96875 1.390625 -1.546875q0.859375 -0.578125 1.9375 -0.875q0.796875 -0.21875 2.390625 -0.40625q3.265625 -0.390625 4.8125 -0.9375q0.015625 -0.546875 0.015625 -0.703125q0 -1.640625 -0.765625 -2.3125q-1.03125 -0.921875 -3.0625 -0.921875q-1.90625 0 -2.8125 0.671875q-0.90625 0.671875 -1.34375 2.359375l-2.625 -0.359375q0.359375 -1.6875 1.171875 -2.734375q0.828125 -1.046875 2.375 -1.59375q1.5625 -0.5625 3.609375 -0.5625q2.046875 0 3.3125 0.484375q1.28125 0.46875 1.875 1.203125q0.59375 0.71875 0.84375 1.828125q0.125 0.6875 0.125 2.484375l0 3.59375q0 3.75 0.171875 4.75q0.171875 1.0 0.6875 1.9062347l-2.8125 0q-0.421875 -0.84373474 -0.546875 -1.9531097zm-0.21875 -6.03125q-1.46875 0.609375 -4.40625 1.03125q-1.65625 0.234375 -2.34375 0.53125q-0.6875 0.296875 -1.0625 0.875q-0.375 0.578125 -0.375 1.28125q0 1.078125 0.8125 1.796875q0.8125 0.71875 2.390625 0.71875q1.546875 0 2.765625 -0.671875q1.21875 -0.6875 1.78125 -1.875q0.4375 -0.90625 0.4375 -2.6875l0 -1.0zm19.832458 7.9843597l-6.046875 -15.89061l2.84375 0l3.40625 9.515625q0.5625 1.546875 1.03125 3.203125q0.34375 -1.265625 1.0 -3.03125l3.53125 -9.6875l2.765625 0l-6.015625 15.89061l-2.515625 0zm21.28125 -1.9531097q-1.5 1.265625 -2.890625 1.7968597q-1.375 0.515625 -2.953125 0.515625q-2.625 0 -4.03125 -1.2812347q-1.40625 -1.28125 -1.40625 -3.265625q0 -1.171875 0.53125 -2.140625q0.53125 -0.96875 1.390625 -1.546875q0.859375 -0.578125 1.9375 -0.875q0.796875 -0.21875 2.390625 -0.40625q3.265625 -0.390625 4.8125 -0.9375q0.015625 -0.546875 0.015625 -0.703125q0 -1.640625 -0.765625 -2.3125q-1.03125 -0.921875 -3.0625 -0.921875q-1.90625 0 -2.8125 0.671875q-0.90625 0.671875 -1.34375 2.359375l-2.625 -0.359375q0.359375 -1.6875 1.171875 -2.734375q0.828125 -1.046875 2.375 -1.59375q1.5625 -0.5625 3.609375 -0.5625q2.046875 0 3.3125 0.484375q1.28125 0.46875 1.875 1.203125q0.59375 0.71875 0.84375 1.828125q0.125 0.6875 0.125 2.484375l0 3.59375q0 3.75 0.171875 4.75q0.171875 1.0 0.6875 1.9062347l-2.8125 0q-0.421875 -0.84373474 -0.546875 -1.9531097zm-0.21875 -6.03125q-1.46875 0.609375 -4.40625 1.03125q-1.65625 0.234375 -2.34375 0.53125q-0.6875 0.296875 -1.0625 0.875q-0.375 0.578125 -0.375 1.28125q0 1.078125 0.8125 1.796875q0.8125 0.71875 2.390625 0.71875q1.546875 0 2.765625 -0.671875q1.21875 -0.6875 1.78125 -1.875q0.4375 -0.90625 0.4375 -2.6875l0 -1.0zm6.8620605 7.9843597l0 -15.89061l2.4375 0l0 2.40625q0.921875 -1.6875 1.703125 -2.21875q0.796875 -0.546875 1.734375 -0.546875q1.359375 0 2.765625 0.859375l-0.921875 2.5q-0.984375 -0.578125 -1.984375 -0.578125q-0.875 0 -1.578125 0.53125q-0.703125 0.53125 -1.0 1.46875q-0.453125 1.4375 -0.453125 3.140625l0 8.32811l-2.703125 0zm10.255646 -18.843735l0 -3.09375l2.703125 0l0 3.09375l-2.703125 0zm0 18.843735l0 -15.89061l2.703125 0l0 15.89061l-2.703125 0zm17.170227 -1.9531097q-1.5 1.265625 -2.890625 1.7968597q-1.375 0.515625 -2.953125 0.515625q-2.625 0 -4.0312805 -1.2812347q-1.40625 -1.28125 -1.40625 -3.265625q0 -1.171875 0.53125 -2.140625q0.53125 -0.96875 1.3906555 -1.546875q0.859375 -0.578125 1.9375 -0.875q0.796875 -0.21875 2.390625 -0.40625q3.265625 -0.390625 4.8125 -0.9375q0.015625 -0.546875 0.015625 -0.703125q0 -1.640625 -0.765625 -2.3125q-1.03125 -0.921875 -3.0625 -0.921875q-1.90625 0 -2.8125 0.671875q-0.90625 0.671875 -1.34375 2.359375l-2.6250305 -0.359375q0.359375 -1.6875 1.1719055 -2.734375q0.828125 -1.046875 2.375 -1.59375q1.5625 -0.5625 3.609375 -0.5625q2.046875 0 3.3125 0.484375q1.28125 0.46875 1.875 1.203125q0.59375 0.71875 0.84375 1.828125q0.125 0.6875 0.125 2.484375l0 3.59375q0 3.75 0.171875 4.75q0.171875 1.0 0.6875 1.9062347l-2.8125 0q-0.421875 -0.84373474 -0.546875 -1.9531097zm-0.21875 -6.03125q-1.46875 0.609375 -4.40625 1.03125q-1.65625 0.234375 -2.34375 0.53125q-0.6875 0.296875 -1.0625 0.875q-0.375 0.578125 -0.375 1.28125q0 1.078125 0.8125 1.796875q0.8125 0.71875 2.390625 0.71875q1.546875 0 2.765625 -0.671875q1.21875 -0.6875 1.78125 -1.875q0.4375 -0.90625 0.4375 -2.6875l0 -1.0zm9.3776245 7.9843597l-2.5 0l0 -21.937485l2.703125 0l0 7.828125q1.703125 -2.140625 4.359375 -2.140625q1.453125 0 2.765625 0.59375q1.3125 0.578125 2.15625 1.65625q0.84375 1.0625 1.328125 2.578125q0.484375 1.515625 0.484375 3.234375q0 4.09375 -2.03125 6.328125q-2.015625 2.2187347 -4.84375 2.2187347q-2.8125 0 -4.421875 -2.3437347l0 1.9843597zm-0.03125 -8.062485q0 2.859375 0.78125 4.125q1.28125 2.078125 3.453125 2.078125q1.765625 0 3.046875 -1.53125q1.28125 -1.53125 1.28125 -4.578125q0 -3.109375 -1.234375 -4.59375q-1.234375 -1.484375 -2.984375 -1.484375q-1.765625 0 -3.0625 1.546875q-1.28125 1.53125 -1.28125 4.4375zm14.612061 -10.78125l0 -3.09375l2.703125 0l0 3.09375l-2.703125 0zm0 18.843735l0 -15.89061l2.703125 0l0 15.89061l-2.703125 0zm6.732727 0l0 -21.937485l2.703125 0l0 21.937485l-2.703125 0zm6.888977 -18.843735l0 -3.09375l2.703125 0l0 3.09375l-2.703125 0zm0 18.843735l0 -15.89061l2.703125 0l0 15.89061l-2.703125 0zm17.107666 0l0 -1.9999847q-1.5 2.3593597 -4.4375 2.3593597q-1.90625 0 -3.5 -1.0468597q-1.59375 -1.046875 -2.46875 -2.921875q-0.875 -1.890625 -0.875 -4.328125q0 -2.375 0.796875 -4.3125q0.796875 -1.9375 2.375 -2.96875q1.59375 -1.03125 3.546875 -1.03125q1.4375 0 2.5625 0.609375q1.125 0.59375 1.828125 1.5625l0 -7.859375l2.671875 0l0 21.937485l-2.5 0zm-8.515625 -7.9374847q0 3.0625 1.28125 4.578125q1.296875 1.5 3.046875 1.5q1.765625 0 3.0 -1.4375q1.234375 -1.453125 1.234375 -4.40625q0 -3.265625 -1.265625 -4.796875q-1.25 -1.53125 -3.09375 -1.53125q-1.78125 0 -3.0 1.46875q-1.203125 1.46875 -1.203125 4.625zm25.627686 5.984375q-1.5 1.265625 -2.890625 1.7968597q-1.375 0.515625 -2.953125 0.515625q-2.625 0 -4.03125 -1.2812347q-1.40625 -1.28125 -1.40625 -3.265625q0 -1.171875 0.53125 -2.140625q0.53125 -0.96875 1.390625 -1.546875q0.859375 -0.578125 1.9375 -0.875q0.796875 -0.21875 2.390625 -0.40625q3.265625 -0.390625 4.8125 -0.9375q0.015625 -0.546875 0.015625 -0.703125q0 -1.640625 -0.765625 -2.3125q-1.03125 -0.921875 -3.0625 -0.921875q-1.90625 0 -2.8125 0.671875q-0.90625 0.671875 -1.34375 2.359375l-2.625 -0.359375q0.359375 -1.6875 1.171875 -2.734375q0.828125 -1.046875 2.375 -1.59375q1.5625 -0.5625 3.609375 -0.5625q2.046875 0 3.3125 0.484375q1.28125 0.46875 1.875 1.203125q0.59375 0.71875 0.84375 1.828125q0.125 0.6875 0.125 2.484375l0 3.59375q0 3.75 0.171875 4.75q0.171875 1.0 0.6875 1.9062347l-2.8125 0q-0.421875 -0.84373474 -0.546875 -1.9531097zm-0.21875 -6.03125q-1.46875 0.609375 -4.40625 1.03125q-1.65625 0.234375 -2.34375 0.53125q-0.6875 0.296875 -1.0625 0.875q-0.375 0.578125 -0.375 1.28125q0 1.078125 0.8125 1.796875q0.8125 0.71875 2.390625 0.71875q1.546875 0 2.765625 -0.671875q1.21875 -0.6875 1.78125 -1.875q0.4375 -0.90625 0.4375 -2.6875l0 -1.0zm17.20581 7.9843597l0 -1.9999847q-1.5 2.3593597 -4.4375 2.3593597q-1.90625 0 -3.5 -1.0468597q-1.59375 -1.046875 -2.46875 -2.921875q-0.875 -1.890625 -0.875 -4.328125q0 -2.375 0.796875 -4.3125q0.796875 -1.9375 2.375 -2.96875q1.59375 -1.03125 3.546875 -1.03125q1.4375 0 2.5625 0.609375q1.125 0.59375 1.828125 1.5625l0 -7.859375l2.671875 0l0 21.937485l-2.5 0zm-8.515625 -7.9374847q0 3.0625 1.28125 4.578125q1.296875 1.5 3.046875 1.5q1.765625 0 3.0 -1.4375q1.234375 -1.453125 1.234375 -4.40625q0 -3.265625 -1.265625 -4.796875q-1.25 -1.53125 -3.09375 -1.53125q-1.78125 0 -3.0 1.46875q-1.203125 1.46875 -1.203125 4.625zm26.14331 2.8125l2.78125 0.34375q-0.65625 2.453125 -2.4375 3.796875q-1.78125 1.3437347 -4.546875 1.3437347q-3.5 0 -5.546875 -2.1406097q-2.03125 -2.15625 -2.03125 -6.03125q0 -4.015625 2.0625 -6.21875q2.0625 -2.21875 5.359375 -2.21875q3.1875 0 5.203125 2.171875q2.03125 2.15625 2.03125 6.09375q0 0.25 -0.015625 0.71875l-11.859375 0q0.15625 2.625 1.484375 4.015625q1.328125 1.390625 3.328125 1.390625q1.46875 0 2.515625 -0.765625q1.0625 -0.78125 1.671875 -2.5zm-8.84375 -4.34375l8.875 0q-0.1875 -2.015625 -1.015625 -3.015625q-1.296875 -1.5625 -3.34375 -1.5625q-1.859375 0 -3.125 1.25q-1.265625 1.234375 -1.390625 3.328125zm33.83246 9.468735l0 -1.9999847q-1.5 2.3593597 -4.4375 2.3593597q-1.90625 0 -3.5 -1.0468597q-1.59375 -1.046875 -2.46875 -2.921875q-0.875 -1.890625 -0.875 -4.328125q0 -2.375 0.796875 -4.3125q0.796875 -1.9375 2.375 -2.96875q1.59375 -1.03125 3.546875 -1.03125q1.4375 0 2.5625 0.609375q1.125 0.59375 1.828125 1.5625l0 -7.859375l2.671875 0l0 21.937485l-2.5 0zm-8.515625 -7.9374847q0 3.0625 1.28125 4.578125q1.296875 1.5 3.046875 1.5q1.765625 0 3.0 -1.4375q1.234375 -1.453125 1.234375 -4.40625q0 -3.265625 -1.265625 -4.796875q-1.25 -1.53125 -3.09375 -1.53125q-1.78125 0 -3.0 1.46875q-1.203125 1.46875 -1.203125 4.625zm26.14325 2.8125l2.78125 0.34375q-0.65625 2.453125 -2.4375 3.796875q-1.78125 1.3437347 -4.546875 1.3437347q-3.5 0 -5.546875 -2.1406097q-2.03125 -2.15625 -2.03125 -6.03125q0 -4.015625 2.0625 -6.21875q2.0625 -2.21875 5.359375 -2.21875q3.1875 0 5.203125 2.171875q2.03125 2.15625 2.03125 6.09375q0 0.25 -0.015625 0.71875l-11.859375 0q0.15625 2.625 1.484375 4.015625q1.328125 1.390625 3.328125 1.390625q1.46875 0 2.515625 -0.765625q1.0625 -0.78125 1.671875 -2.5zm-8.84375 -4.34375l8.875 0q-0.1875 -2.015625 -1.015625 -3.015625q-1.296875 -1.5625 -3.34375 -1.5625q-1.859375 0 -3.125 1.25q-1.265625 1.234375 -1.390625 3.328125z" fill-rule="nonzero"/><path fill="#ffffff" d="m436.51956 299.5332l0 -21.984375l2.453125 0l0 2.0625q0.875 -1.21875 1.96875 -1.8125q1.09375 -0.609375 2.65625 -0.609375q2.03125 0 3.578125 1.046875q1.5625 1.046875 2.359375 2.953125q0.796875 1.90625 0.796875 4.1875q0 2.4375 -0.875 4.390625q-0.875 1.953125 -2.546875 3.0q-1.671875 1.03125 -3.515625 1.03125q-1.34375 0 -2.421875 -0.5625q-1.0625 -0.578125 -1.75 -1.4375l0 7.734375l-2.703125 0zm2.4375 -13.953125q0 3.0625 1.25 4.53125q1.25 1.46875 3.015625 1.46875q1.796875 0 3.0625 -1.515625q1.28125 -1.515625 1.28125 -4.703125q0 -3.046875 -1.25 -4.546875q-1.25 -1.515625 -2.984375 -1.515625q-1.71875 0 -3.046875 1.609375q-1.328125 1.609375 -1.328125 4.671875zm13.612061 -0.09375q0 -4.40625 2.453125 -6.53125q2.0625 -1.765625 5.0 -1.765625q3.28125 0 5.359375 2.15625q2.078125 2.140625 2.078125 5.921875q0 3.0625 -0.921875 4.828125q-0.90625 1.75 -2.671875 2.734375q-1.765625 0.96875 -3.84375 0.96875q-3.328125 0 -5.390625 -2.140625q-2.0625 -2.140625 -2.0625 -6.171875zm2.765625 0q0 3.0625 1.328125 4.578125q1.34375 1.515625 3.359375 1.515625q2.015625 0 3.34375 -1.515625q1.328125 -1.53125 1.328125 -4.65625q0 -2.953125 -1.34375 -4.46875q-1.328125 -1.53125 -3.328125 -1.53125q-2.015625 0 -3.359375 1.515625q-1.328125 1.515625 -1.328125 4.5625zm14.20578 3.203125l2.671875 -0.421875q0.21875 1.609375 1.234375 2.46875q1.03125 0.84375 2.875 0.84375q1.859375 0 2.75 -0.75q0.90625 -0.765625 0.90625 -1.78125q0 -0.90625 -0.796875 -1.4375q-0.546875 -0.359375 -2.75 -0.90625q-2.96875 -0.75 -4.109375 -1.296875q-1.140625 -0.546875 -1.734375 -1.515625q-0.59375 -0.96875 -0.59375 -2.125q0 -1.0625 0.484375 -1.96875q0.484375 -0.90625 1.328125 -1.515625q0.625 -0.453125 1.703125 -0.765625q1.09375 -0.328125 2.34375 -0.328125q1.859375 0 3.265625 0.546875q1.421875 0.53125 2.09375 1.453125q0.6875 0.90625 0.9375 2.453125l-2.640625 0.359375q-0.171875 -1.21875 -1.03125 -1.90625q-0.859375 -0.703125 -2.4375 -0.703125q-1.859375 0 -2.65625 0.625q-0.78125 0.609375 -0.78125 1.4375q0 0.515625 0.328125 0.9375q0.328125 0.4375 1.03125 0.71875q0.40625 0.15625 2.375 0.6875q2.859375 0.765625 3.984375 1.25q1.140625 0.484375 1.78125 1.421875q0.640625 0.921875 0.640625 2.296875q0 1.34375 -0.78125 2.546875q-0.78125 1.1875 -2.265625 1.84375q-1.484375 0.640625 -3.359375 0.640625q-3.09375 0 -4.71875 -1.28125q-1.625 -1.296875 -2.078125 -3.828125zm15.328125 0l2.671875 -0.421875q0.21875 1.609375 1.234375 2.46875q1.03125 0.84375 2.875 0.84375q1.859375 0 2.75 -0.75q0.90625 -0.765625 0.90625 -1.78125q0 -0.90625 -0.796875 -1.4375q-0.546875 -0.359375 -2.75 -0.90625q-2.96875 -0.75 -4.109375 -1.296875q-1.140625 -0.546875 -1.734375 -1.515625q-0.59375 -0.96875 -0.59375 -2.125q0 -1.0625 0.484375 -1.96875q0.484375 -0.90625 1.328125 -1.515625q0.625 -0.453125 1.703125 -0.765625q1.09375 -0.328125 2.34375 -0.328125q1.859375 0 3.265625 0.546875q1.421875 0.53125 2.09375 1.453125q0.6875 0.90625 0.9375 2.453125l-2.640625 0.359375q-0.171875 -1.21875 -1.03125 -1.90625q-0.859375 -0.703125 -2.4375 -0.703125q-1.859375 0 -2.65625 0.625q-0.78125 0.609375 -0.78125 1.4375q0 0.515625 0.328125 0.9375q0.328125 0.4375 1.03125 0.71875q0.40625 0.15625 2.375 0.6875q2.859375 0.765625 3.984375 1.25q1.140625 0.484375 1.78125 1.421875q0.640625 0.921875 0.640625 2.296875q0 1.34375 -0.78125 2.546875q-0.78125 1.1875 -2.265625 1.84375q-1.484375 0.640625 -3.359375 0.640625q-3.09375 0 -4.71875 -1.28125q-1.625 -1.296875 -2.078125 -3.828125zm17.359375 4.75l0 -15.890625l2.6875 0l0 15.890625l-2.6875 0zm-0.140625 -17.875l1.984375 -4.1875l3.53125 0l-3.296875 4.1875l-2.21875 0zm12.126648 17.875l-6.0468445 -15.890625l2.84375 0l3.4062195 9.515625q0.5625 1.546875 1.03125 3.203125q0.34375 -1.265625 1.0 -3.03125l3.53125 -9.6875l2.765625 0l-6.015625 15.890625l-2.515625 0zm21.796875 -5.125l2.78125 0.34375q-0.65625 2.453125 -2.4375 3.796875q-1.78125 1.34375 -4.546875 1.34375q-3.5 0 -5.546875 -2.140625q-2.03125 -2.15625 -2.03125 -6.03125q0 -4.015625 2.0625 -6.21875q2.0625 -2.21875 5.359375 -2.21875q3.1875 0 5.203125 2.171875q2.03125 2.15625 2.03125 6.09375q0 0.25 -0.015625 0.71875l-11.859375 0q0.15625 2.625 1.484375 4.015625q1.328125 1.390625 3.328125 1.390625q1.46875 0 2.515625 -0.765625q1.0625 -0.78125 1.671875 -2.5zm-8.84375 -4.34375l8.875 0q-0.1875 -2.015625 -1.015625 -3.015625q-1.296875 -1.5625 -3.34375 -1.5625q-1.859375 0 -3.125 1.25q-1.265625 1.234375 -1.390625 3.328125zm15.018311 -9.375l0 -3.09375l2.703125 0l0 3.09375l-2.703125 0zm0 18.84375l0 -15.890625l2.703125 0l0 15.890625l-2.703125 0zm5.717102 -4.75l2.671875 -0.421875q0.21875 1.609375 1.234375 2.46875q1.03125 0.84375 2.875 0.84375q1.859375 0 2.75 -0.75q0.90625 -0.765625 0.90625 -1.78125q0 -0.90625 -0.796875 -1.4375q-0.546875 -0.359375 -2.75 -0.90625q-2.96875 -0.75 -4.109375 -1.296875q-1.140625 -0.546875 -1.734375 -1.515625q-0.59375 -0.96875 -0.59375 -2.125q0 -1.0625 0.484375 -1.96875q0.484375 -0.90625 1.328125 -1.515625q0.625 -0.453125 1.703125 -0.765625q1.09375 -0.328125 2.34375 -0.328125q1.859375 0 3.265625 0.546875q1.421875 0.53125 2.09375 1.453125q0.6875 0.90625 0.9375 2.453125l-2.640625 0.359375q-0.171875 -1.21875 -1.03125 -1.90625q-0.859375 -0.703125 -2.4375 -0.703125q-1.859375 0 -2.65625 0.625q-0.78125 0.609375 -0.78125 1.4375q0 0.515625 0.328125 0.9375q0.328125 0.4375 1.03125 0.71875q0.40625 0.15625 2.375 0.6875q2.859375 0.765625 3.984375 1.25q1.140625 0.484375 1.78125 1.421875q0.640625 0.921875 0.640625 2.296875q0 1.34375 -0.78125 2.546875q-0.78125 1.1875 -2.265625 1.84375q-1.484375 0.640625 -3.359375 0.640625q-3.09375 0 -4.71875 -1.28125q-1.625 -1.296875 -2.078125 -3.828125zm24.892273 4.75l0 -15.890625l2.4375 0l0 2.40625q0.921875 -1.6875 1.703125 -2.21875q0.796875 -0.546875 1.734375 -0.546875q1.359375 0 2.765625 0.859375l-0.921875 2.5q-0.984375 -0.578125 -1.984375 -0.578125q-0.875 0 -1.578125 0.53125q-0.703125 0.53125 -1.0 1.46875q-0.453125 1.4375 -0.453125 3.140625l0 8.328125l-2.703125 0zm21.130676 -5.125l2.78125 0.34375q-0.65625 2.453125 -2.4375 3.796875q-1.78125 1.34375 -4.546875 1.34375q-3.5 0 -5.546875 -2.140625q-2.03125 -2.15625 -2.03125 -6.03125q0 -4.015625 2.0625 -6.21875q2.0625 -2.21875 5.359375 -2.21875q3.1875 0 5.203125 2.171875q2.03125 2.15625 2.03125 6.09375q0 0.25 -0.015625 0.71875l-11.859375 0q0.15625 2.625 1.484375 4.015625q1.328125 1.390625 3.328125 1.390625q1.46875 0 2.515625 -0.765625q1.0625 -0.78125 1.671875 -2.5zm-8.84375 -4.34375l8.875 0q-0.1875 -2.015625 -1.015625 -3.015625q-1.296875 -1.5625 -3.34375 -1.5625q-1.859375 0 -3.125 1.25q-1.265625 1.234375 -1.390625 3.328125zm13.9244995 4.71875l2.671875 -0.421875q0.21875 1.609375 1.234375 2.46875q1.03125 0.84375 2.875 0.84375q1.859375 0 2.75 -0.75q0.90625 -0.765625 0.90625 -1.78125q0 -0.90625 -0.796875 -1.4375q-0.546875 -0.359375 -2.75 -0.90625q-2.96875 -0.75 -4.109375 -1.296875q-1.140625 -0.546875 -1.734375 -1.515625q-0.59375 -0.96875 -0.59375 -2.125q0 -1.0625 0.484375 -1.96875q0.484375 -0.90625 1.328125 -1.515625q0.625 -0.453125 1.703125 -0.765625q1.09375 -0.328125 2.34375 -0.328125q1.859375 0 3.265625 0.546875q1.421875 0.53125 2.09375 1.453125q0.6875 0.90625 0.9375 2.453125l-2.640625 0.359375q-0.171875 -1.21875 -1.03125 -1.90625q-0.859375 -0.703125 -2.4375 -0.703125q-1.859375 0 -2.65625 0.625q-0.78125 0.609375 -0.78125 1.4375q0 0.515625 0.328125 0.9375q0.328125 0.4375 1.03125 0.71875q0.40625 0.15625 2.375 0.6875q2.859375 0.765625 3.984375 1.25q1.140625 0.484375 1.78125 1.421875q0.640625 0.921875 0.640625 2.296875q0 1.34375 -0.78125 2.546875q-0.78125 1.1875 -2.265625 1.84375q-1.484375 0.640625 -3.359375 0.640625q-3.09375 0 -4.71875 -1.28125q-1.625 -1.296875 -2.078125 -3.828125zm26.828125 4.75l0 -2.328125q-1.859375 2.6875 -5.046875 2.6875q-1.40625 0 -2.625 -0.53125q-1.21875 -0.546875 -1.8125 -1.359375q-0.59375 -0.8125 -0.828125 -2.0q-0.171875 -0.796875 -0.171875 -2.515625l0 -9.84375l2.703125 0l0 8.8125q0 2.109375 0.15625 2.84375q0.265625 1.0625 1.078125 1.671875q0.828125 0.609375 2.046875 0.609375q1.203125 0 2.265625 -0.625q1.0625 -0.625 1.5 -1.6875q0.453125 -1.078125 0.453125 -3.109375l0 -8.515625l2.6875 0l0 15.890625l-2.40625 0zm6.5651855 0l0 -21.9375l2.703125 0l0 21.9375l-2.703125 0zm12.763977 -2.40625l0.390625 2.375q-1.140625 0.234375 -2.046875 0.234375q-1.453125 0 -2.265625 -0.453125q-0.8125 -0.46875 -1.140625 -1.21875q-0.328125 -0.765625 -0.328125 -3.1875l0 -9.140625l-1.984375 0l0 -2.09375l1.984375 0l0 -3.9375l2.671875 -1.625l0 5.5625l2.71875 0l0 2.09375l-2.71875 0l0 9.296875q0 1.140625 0.140625 1.484375q0.15625 0.328125 0.46875 0.515625q0.328125 0.1875 0.921875 0.1875q0.453125 0 1.1875 -0.09375zm13.001648 0.453125q-1.5 1.265625 -2.890625 1.796875q-1.375 0.515625 -2.953125 0.515625q-2.625 0 -4.03125 -1.28125q-1.40625 -1.28125 -1.40625 -3.265625q0 -1.171875 0.53125 -2.140625q0.53125 -0.96875 1.390625 -1.546875q0.859375 -0.578125 1.9375 -0.875q0.796875 -0.21875 2.390625 -0.40625q3.265625 -0.390625 4.8125 -0.9375q0.015625 -0.546875 0.015625 -0.703125q0 -1.640625 -0.765625 -2.3125q-1.03125 -0.921875 -3.0625 -0.921875q-1.90625 0 -2.8125 0.671875q-0.90625 0.671875 -1.34375 2.359375l-2.625 -0.359375q0.359375 -1.6875 1.171875 -2.734375q0.828125 -1.046875 2.375 -1.59375q1.5625 -0.5625 3.609375 -0.5625q2.046875 0 3.3125 0.484375q1.28125 0.46875 1.875 1.203125q0.59375 0.71875 0.84375 1.828125q0.125 0.6875 0.125 2.484375l0 3.59375q0 3.75 0.171875 4.75q0.171875 1.0 0.6875 1.90625l-2.8125 0q-0.421875 -0.84375 -0.546875 -1.953125zm-0.21875 -6.03125q-1.46875 0.609375 -4.40625 1.03125q-1.65625 0.234375 -2.34375 0.53125q-0.6875 0.296875 -1.0625 0.875q-0.375 0.578125 -0.375 1.28125q0 1.078125 0.8125 1.796875q0.8125 0.71875 2.390625 0.71875q1.546875 0 2.765625 -0.671875q1.21875 -0.6875 1.78125 -1.875q0.4375 -0.90625 0.4375 -2.6875l0 -1.0zm17.20581 7.984375l0 -2.0q-1.5 2.359375 -4.4375 2.359375q-1.90625 0 -3.5 -1.046875q-1.59375 -1.046875 -2.46875 -2.921875q-0.875 -1.890625 -0.875 -4.328125q0 -2.375 0.796875 -4.3125q0.796875 -1.9375 2.375 -2.96875q1.59375 -1.03125 3.546875 -1.03125q1.4375 0 2.5625 0.609375q1.125 0.59375 1.828125 1.5625l0 -7.859375l2.671875 0l0 21.9375l-2.5 0zm-8.515625 -7.9375q0 3.0625 1.28125 4.578125q1.296875 1.5 3.046875 1.5q1.765625 0 3.0 -1.4375q1.234375 -1.453125 1.234375 -4.40625q0 -3.265625 -1.265625 -4.796875q-1.25 -1.53125 -3.09375 -1.53125q-1.78125 0 -3.0 1.46875q-1.203125 1.46875 -1.203125 4.625zm14.252686 -0.015625q0 -4.40625 2.453125 -6.53125q2.0625 -1.765625 5.0 -1.765625q3.28125 0 5.359375 2.15625q2.078125 2.140625 2.078125 5.921875q0 3.0625 -0.921875 4.828125q-0.90625 1.75 -2.671875 2.734375q-1.765625 0.96875 -3.84375 0.96875q-3.328125 0 -5.390625 -2.140625q-2.0625 -2.140625 -2.0625 -6.171875zm2.765625 0q0 3.0625 1.328125 4.578125q1.34375 1.515625 3.359375 1.515625q2.015625 0 3.34375 -1.515625q1.328125 -1.53125 1.328125 -4.65625q0 -2.953125 -1.34375 -4.46875q-1.328125 -1.53125 -3.328125 -1.53125q-2.015625 0 -3.359375 1.515625q-1.328125 1.515625 -1.328125 4.5625zm14.205811 3.203125l2.671875 -0.421875q0.21875 1.609375 1.234375 2.46875q1.03125 0.84375 2.875 0.84375q1.859375 0 2.75 -0.75q0.90625 -0.765625 0.90625 -1.78125q0 -0.90625 -0.796875 -1.4375q-0.546875 -0.359375 -2.75 -0.90625q-2.96875 -0.75 -4.109375 -1.296875q-1.140625 -0.546875 -1.734375 -1.515625q-0.59375 -0.96875 -0.59375 -2.125q0 -1.0625 0.484375 -1.96875q0.484375 -0.90625 1.328125 -1.515625q0.625 -0.453125 1.703125 -0.765625q1.09375 -0.328125 2.34375 -0.328125q1.859375 0 3.265625 0.546875q1.421875 0.53125 2.09375 1.453125q0.6875 0.90625 0.9375 2.453125l-2.640625 0.359375q-0.171875 -1.21875 -1.03125 -1.90625q-0.859375 -0.703125 -2.4375 -0.703125q-1.859375 0 -2.65625 0.625q-0.78125 0.609375 -0.78125 1.4375q0 0.515625 0.328125 0.9375q0.328125 0.4375 1.03125 0.71875q0.40625 0.15625 2.375 0.6875q2.859375 0.765625 3.984375 1.25q1.140625 0.484375 1.78125 1.421875q0.640625 0.921875 0.640625 2.296875q0 1.34375 -0.78125 2.546875q-0.78125 1.1875 -2.265625 1.84375q-1.484375 0.640625 -3.359375 0.640625q-3.09375 0 -4.71875 -1.28125q-1.625 -1.296875 -2.078125 -3.828125z" fill-rule="nonzero"/><path fill="#000000" fill-opacity="0.0" d="m777.13385 221.70604l218.42523 0l0 93.732285l-218.42523 0z" fill-rule="evenodd"/><path fill="#ffffff" d="m788.1495 260.14603l0 -15.89061l2.4375 0l0 2.25q1.75 -2.609375 5.046875 -2.609375q1.4375 0 2.640625 0.515625q1.21875 0.515625 1.8125 1.359375q0.59375 0.828125 0.84375 1.984375q0.140625 0.75 0.140625 2.609375l0 9.781235l-2.6875 0l0 -9.67186q0 -1.640625 -0.328125 -2.453125q-0.3125 -0.828125 -1.109375 -1.3125q-0.796875 -0.484375 -1.875 -0.484375q-1.71875 0 -2.96875 1.09375q-1.25 1.09375 -1.25 4.140625l0 8.687485l-2.703125 0zm18.002686 0l0 -15.89061l2.6875 0l0 15.89061l-2.6875 0zm-0.140625 -17.874985l1.984375 -4.1875l3.53125 0l-3.296875 4.1875l-2.21875 0zm12.126648 17.874985l-6.046875 -15.89061l2.84375 0l3.40625 9.515625q0.5625 1.546875 1.03125 3.2031097q0.34375 -1.2656097 1.0 -3.0312347l3.53125 -9.6875l2.765625 0l-6.015625 15.89061l-2.515625 0zm21.796875 -5.1249847l2.78125 0.34375q-0.65625 2.4531097 -2.4375 3.7968597q-1.78125 1.34375 -4.546875 1.34375q-3.5 0 -5.546875 -2.140625q-2.03125 -2.15625 -2.03125 -6.0312347q0 -4.015625 2.0625 -6.21875q2.0625 -2.21875 5.359375 -2.21875q3.1875 0 5.203125 2.171875q2.03125 2.15625 2.03125 6.09375q0 0.25 -0.015625 0.71875l-11.859375 0q0.15625 2.625 1.484375 4.0156097q1.328125 1.390625 3.328125 1.390625q1.46875 0 2.515625 -0.765625q1.0625 -0.78125 1.671875 -2.4999847zm-8.84375 -4.34375l8.875 0q-0.1875 -2.015625 -1.015625 -3.015625q-1.296875 -1.5625 -3.34375 -1.5625q-1.859375 0 -3.125 1.25q-1.265625 1.234375 -1.390625 3.328125zm14.940186 9.468735l0 -21.937485l2.703125 0l0 21.937485l-2.703125 0zm25.703125 0l0 -2.0q-1.5 2.359375 -4.4375 2.359375q-1.90625 0 -3.5 -1.046875q-1.59375 -1.046875 -2.46875 -2.921875q-0.875 -1.8906097 -0.875 -4.3281097q0 -2.375 0.796875 -4.3125q0.796875 -1.9375 2.375 -2.96875q1.59375 -1.03125 3.546875 -1.03125q1.4375 0 2.5625 0.609375q1.125 0.59375 1.828125 1.5625l0 -7.859375l2.671875 0l0 21.937485l-2.5 0zm-8.515625 -7.9374847q0 3.0625 1.28125 4.5781097q1.296875 1.5 3.046875 1.5q1.765625 0 3.0 -1.4375q1.234375 -1.4531097 1.234375 -4.4062347q0 -3.265625 -1.265625 -4.796875q-1.25 -1.53125 -3.09375 -1.53125q-1.78125 0 -3.0 1.46875q-1.203125 1.46875 -1.203125 4.625zm26.14331 2.8125l2.78125 0.34375q-0.65625 2.4531097 -2.4375 3.7968597q-1.78125 1.34375 -4.546875 1.34375q-3.5 0 -5.546875 -2.140625q-2.03125 -2.15625 -2.03125 -6.0312347q0 -4.015625 2.0625 -6.21875q2.0625 -2.21875 5.359375 -2.21875q3.1875 0 5.203125 2.171875q2.03125 2.15625 2.03125 6.09375q0 0.25 -0.015625 0.71875l-11.859375 0q0.15625 2.625 1.484375 4.0156097q1.328125 1.390625 3.328125 1.390625q1.46875 0 2.515625 -0.765625q1.0625 -0.78125 1.671875 -2.4999847zm-8.84375 -4.34375l8.875 0q-0.1875 -2.015625 -1.015625 -3.015625q-1.296875 -1.5625 -3.34375 -1.5625q-1.859375 0 -3.125 1.25q-1.265625 1.234375 -1.390625 3.328125z" fill-rule="nonzero"/><path fill="#ffffff" d="m798.5245 291.1179l2.65625 0.34375q-0.4375 2.75 -2.234375 4.296875q-1.78125 1.546875 -4.390625 1.546875q-3.25 0 -5.234375 -2.125q-1.984375 -2.140625 -1.984375 -6.125q0 -2.578125 0.84375 -4.5q0.859375 -1.9375 2.59375 -2.890625q1.75 -0.96875 3.796875 -0.96875q2.59375 0 4.234375 1.3125q1.65625 1.296875 2.125 3.703125l-2.625 0.40625q-0.375 -1.59375 -1.328125 -2.40625q-0.953125 -0.8125 -2.296875 -0.8125q-2.03125 0 -3.3125 1.46875q-1.265625 1.453125 -1.265625 4.609375q0 3.203125 1.21875 4.65625q1.234375 1.453125 3.203125 1.453125q1.59375 0 2.65625 -0.96875q1.0625 -0.96875 1.34375 -3.0zm3.953125 -2.125q0 -4.40625 2.453125 -6.53125q2.0625 -1.765625 5.0 -1.765625q3.28125 0 5.359375 2.15625q2.078125 2.140625 2.078125 5.921875q0 3.0625 -0.921875 4.828125q-0.90625 1.75 -2.671875 2.734375q-1.765625 0.96875 -3.84375 0.96875q-3.328125 0 -5.390625 -2.140625q-2.0625 -2.140625 -2.0625 -6.171875zm2.765625 0q0 3.0625 1.328125 4.578125q1.34375 1.515625 3.359375 1.515625q2.015625 0 3.34375 -1.515625q1.328125 -1.53125 1.328125 -4.65625q0 -2.953125 -1.34375 -4.46875q-1.328125 -1.53125 -3.328125 -1.53125q-2.015625 0 -3.359375 1.515625q-1.328125 1.515625 -1.328125 4.5625zm15.283936 7.953125l0 -15.890625l2.4375 0l0 2.25q1.75 -2.609375 5.046875 -2.609375q1.4375 0 2.640625 0.515625q1.21875 0.515625 1.8125 1.359375q0.59375 0.828125 0.84375 1.984375q0.140625 0.75 0.140625 2.609375l0 9.78125l-2.6875 0l0 -9.671875q0 -1.640625 -0.328125 -2.453125q-0.3125 -0.828125 -1.109375 -1.3125q-0.796875 -0.484375 -1.875 -0.484375q-1.71875 0 -2.96875 1.09375q-1.25 1.09375 -1.25 4.140625l0 8.6875l-2.703125 0zm17.70581 0l0 -13.796875l-2.390625 0l0 -2.09375l2.390625 0l0 -1.703125q0 -1.59375 0.28125 -2.375q0.390625 -1.046875 1.359375 -1.6875q0.984375 -0.65625 2.75 -0.65625q1.140625 0 2.515625 0.265625l-0.40625 2.34375q-0.828125 -0.140625 -1.578125 -0.140625q-1.234375 0 -1.75 0.53125q-0.5 0.515625 -0.5 1.953125l0 1.46875l3.09375 0l0 2.09375l-3.09375 0l0 13.796875l-2.671875 0zm7.876648 -18.84375l0 -3.09375l2.703125 0l0 3.09375l-2.703125 0zm0 18.84375l0 -15.890625l2.703125 0l0 15.890625l-2.703125 0zm17.170227 -1.953125q-1.5 1.265625 -2.890625 1.796875q-1.375 0.515625 -2.953125 0.515625q-2.625 0 -4.03125 -1.28125q-1.40625 -1.28125 -1.40625 -3.265625q0 -1.171875 0.53125 -2.140625q0.53125 -0.96875 1.390625 -1.546875q0.859375 -0.578125 1.9375 -0.875q0.796875 -0.21875 2.390625 -0.40625q3.265625 -0.390625 4.8125 -0.9375q0.015625 -0.546875 0.015625 -0.703125q0 -1.640625 -0.765625 -2.3125q-1.03125 -0.921875 -3.0625 -0.921875q-1.90625 0 -2.8125 0.671875q-0.90625 0.671875 -1.34375 2.359375l-2.625 -0.359375q0.359375 -1.6875 1.171875 -2.734375q0.828125 -1.046875 2.375 -1.59375q1.5625 -0.5625 3.609375 -0.5625q2.046875 0 3.3125 0.484375q1.28125 0.46875 1.875 1.203125q0.59375 0.71875 0.84375 1.828125q0.125 0.6875 0.125 2.484375l0 3.59375q0 3.75 0.171875 4.75q0.171875 1.0 0.6875 1.90625l-2.8125 0q-0.421875 -0.84375 -0.546875 -1.953125zm-0.21875 -6.03125q-1.46875 0.609375 -4.40625 1.03125q-1.65625 0.234375 -2.34375 0.53125q-0.6875 0.296875 -1.0625 0.875q-0.375 0.578125 -0.375 1.28125q0 1.078125 0.8125 1.796875q0.8125 0.71875 2.390625 0.71875q1.546875 0 2.765625 -0.671875q1.21875 -0.6875 1.78125 -1.875q0.4375 -0.90625 0.4375 -2.6875l0 -1.0zm6.8932495 7.984375l0 -15.890625l2.4375 0l0 2.25q1.75 -2.609375 5.046875 -2.609375q1.4375 0 2.640625 0.515625q1.21875 0.515625 1.8125 1.359375q0.59375 0.828125 0.84375 1.984375q0.140625 0.75 0.140625 2.609375l0 9.78125l-2.6875 0l0 -9.671875q0 -1.640625 -0.328125 -2.453125q-0.3125 -0.828125 -1.109375 -1.3125q-0.796875 -0.484375 -1.875 -0.484375q-1.71875 0 -2.96875 1.09375q-1.25 1.09375 -1.25 4.140625l0 8.6875l-2.703125 0zm27.42456 -5.828125l2.65625 0.34375q-0.4375 2.75 -2.234375 4.296875q-1.78125 1.546875 -4.390625 1.546875q-3.25 0 -5.234375 -2.125q-1.984375 -2.140625 -1.984375 -6.125q0 -2.578125 0.84375 -4.5q0.859375 -1.9375 2.59375 -2.890625q1.75 -0.96875 3.796875 -0.96875q2.59375 0 4.234375 1.3125q1.65625 1.296875 2.125 3.703125l-2.625 0.40625q-0.375 -1.59375 -1.328125 -2.40625q-0.953125 -0.8125 -2.296875 -0.8125q-2.03125 0 -3.3125 1.46875q-1.265625 1.453125 -1.265625 4.609375q0 3.203125 1.21875 4.65625q1.234375 1.453125 3.203125 1.453125q1.59375 0 2.65625 -0.96875q1.0625 -0.96875 1.34375 -3.0zm-6.234375 7.84375l0.78125 -2.65625l2.0 0l-0.484375 1.59375q1.265625 0.15625 1.90625 0.78125q0.640625 0.640625 0.640625 1.421875q0 1.125 -1.078125 1.984375q-1.078125 0.859375 -3.25 0.859375q-1.21875 0 -2.140625 -0.171875l0.15625 -1.75q0.953125 0.0625 1.40625 0.0625q1.40625 0 1.984375 -0.390625q0.421875 -0.296875 0.421875 -0.734375q0 -0.28125 -0.171875 -0.484375q-0.171875 -0.203125 -0.640625 -0.359375q-0.453125 -0.15625 -1.53125 -0.15625zm21.5625 -3.96875q-1.5 1.265625 -2.890625 1.796875q-1.375 0.515625 -2.953125 0.515625q-2.625 0 -4.03125 -1.28125q-1.40625 -1.28125 -1.40625 -3.265625q0 -1.171875 0.53125 -2.140625q0.53125 -0.96875 1.390625 -1.546875q0.859375 -0.578125 1.9375 -0.875q0.796875 -0.21875 2.390625 -0.40625q3.265625 -0.390625 4.8125 -0.9375q0.015625 -0.546875 0.015625 -0.703125q0 -1.640625 -0.765625 -2.3125q-1.03125 -0.921875 -3.0625 -0.921875q-1.90625 0 -2.8125 0.671875q-0.90625 0.671875 -1.34375 2.359375l-2.625 -0.359375q0.359375 -1.6875 1.171875 -2.734375q0.828125 -1.046875 2.375 -1.59375q1.5625 -0.5625 3.609375 -0.5625q2.046875 0 3.3125 0.484375q1.28125 0.46875 1.875 1.203125q0.59375 0.71875 0.84375 1.828125q0.125 0.6875 0.125 2.484375l0 3.59375q0 3.75 0.171875 4.75q0.171875 1.0 0.6875 1.90625l-2.8125 0q-0.421875 -0.84375 -0.546875 -1.953125zm-0.21875 -6.03125q-1.46875 0.609375 -4.40625 1.03125q-1.65625 0.234375 -2.34375 0.53125q-0.6875 0.296875 -1.0625 0.875q-0.375 0.578125 -0.375 1.28125q0 1.078125 0.8125 1.796875q0.8125 0.71875 2.390625 0.71875q1.546875 0 2.765625 -0.671875q1.21875 -0.6875 1.78125 -1.875q0.4375 -0.90625 0.4375 -2.6875l0 -1.0z" fill-rule="nonzero"/><path fill="#000000" fill-opacity="0.0" d="m567.56696 329.45407l251.18109 0l0 56.566925l-251.18109 0z" fill-rule="evenodd"/><path fill="#ffffff" d="m589.4732 362.76907l2.78125 0.34375q-0.65625 2.453125 -2.4375 3.796875q-1.78125 1.34375 -4.546875 1.34375q-3.5 0 -5.546875 -2.140625q-2.03125 -2.15625 -2.03125 -6.03125q0 -4.015625 2.0625 -6.21875q2.0625 -2.21875 5.359375 -2.21875q3.1875 0 5.203125 2.171875q2.03125 2.15625 2.03125 6.09375q0 0.25 -0.015625 0.71875l-11.859375 0q0.15625 2.625 1.484375 4.015625q1.328125 1.390625 3.328125 1.390625q1.46875 0 2.515625 -0.765625q1.0625 -0.78125 1.671875 -2.5zm-8.84375 -4.34375l8.875 0q-0.1875 -2.015625 -1.015625 -3.015625q-1.296875 -1.5625 -3.34375 -1.5625q-1.859375 0 -3.125 1.25q-1.265625 1.234375 -1.390625 3.328125zm14.9713745 9.46875l0 -15.890625l2.4375 0l0 2.40625q0.921875 -1.6875 1.703125 -2.21875q0.796875 -0.546875 1.734375 -0.546875q1.359375 0 2.765625 0.859375l-0.921875 2.5q-0.984375 -0.578125 -1.984375 -0.578125q-0.875 0 -1.578125 0.53125q-0.703125 0.53125 -1.0 1.46875q-0.453125 1.4375 -0.453125 3.140625l0 8.328125l-2.703125 0zm10.208801 0l0 -15.890625l2.4375 0l0 2.40625q0.921875 -1.6875 1.703125 -2.21875q0.796875 -0.546875 1.734375 -0.546875q1.359375 0 2.765625 0.859375l-0.921875 2.5q-0.984375 -0.578125 -1.984375 -0.578125q-0.875 0 -1.578125 0.53125q-0.703125 0.53125 -1.0 1.46875q-0.453125 1.4375 -0.453125 3.140625l0 8.328125l-2.703125 0zm9.23999 -7.953125q0 -4.40625 2.453125 -6.53125q2.0625 -1.765625 5.0 -1.765625q3.28125 0 5.359375 2.15625q2.078125 2.140625 2.078125 5.921875q0 3.0625 -0.921875 4.828125q-0.90625 1.75 -2.671875 2.734375q-1.765625 0.96875 -3.84375 0.96875q-3.328125 0 -5.390625 -2.140625q-2.0625 -2.140625 -2.0625 -6.171875zm2.765625 0q0 3.0625 1.328125 4.578125q1.34375 1.515625 3.359375 1.515625q2.015625 0 3.34375 -1.515625q1.328125 -1.53125 1.328125 -4.65625q0 -2.953125 -1.34375 -4.46875q-1.328125 -1.53125 -3.328125 -1.53125q-2.015625 0 -3.359375 1.515625q-1.328125 1.515625 -1.328125 4.5625zm34.17621 6.0q-1.5 1.265625 -2.890625 1.796875q-1.375 0.515625 -2.953125 0.515625q-2.625 0 -4.03125 -1.28125q-1.40625 -1.28125 -1.40625 -3.265625q0 -1.171875 0.53125 -2.140625q0.53125 -0.96875 1.390625 -1.546875q0.859375 -0.578125 1.9375 -0.875q0.796875 -0.21875 2.390625 -0.40625q3.265625 -0.390625 4.8125 -0.9375q0.015625 -0.546875 0.015625 -0.703125q0 -1.640625 -0.765625 -2.3125q-1.03125 -0.921875 -3.0625 -0.921875q-1.90625 0 -2.8125 0.671875q-0.90625 0.671875 -1.34375 2.359375l-2.625 -0.359375q0.359375 -1.6875 1.171875 -2.734375q0.828125 -1.046875 2.375 -1.59375q1.5625 -0.5625 3.609375 -0.5625q2.046875 0 3.3125 0.484375q1.28125 0.46875 1.875 1.203125q0.59375 0.71875 0.84375 1.828125q0.125 0.6875 0.125 2.484375l0 3.59375q0 3.75 0.171875 4.75q0.171875 1.0 0.6875 1.90625l-2.8125 0q-0.421875 -0.84375 -0.546875 -1.953125zm-0.21875 -6.03125q-1.46875 0.609375 -4.40625 1.03125q-1.65625 0.234375 -2.34375 0.53125q-0.6875 0.296875 -1.0625 0.875q-0.375 0.578125 -0.375 1.28125q0 1.078125 0.8125 1.796875q0.8125 0.71875 2.390625 0.71875q1.546875 0 2.765625 -0.671875q1.21875 -0.6875 1.78125 -1.875q0.4375 -0.90625 0.4375 -2.6875l0 -1.0zm6.8933105 7.984375l0 -15.890625l2.421875 0l0 2.21875q0.734375 -1.15625 1.984375 -1.859375q1.25 -0.71875 2.828125 -0.71875q1.765625 0 2.890625 0.734375q1.140625 0.71875 1.59375 2.046875q1.890625 -2.78125 4.921875 -2.78125q2.359375 0 3.625 1.3125q1.28125 1.296875 1.28125 4.03125l0 10.90625l-2.6875 0l0 -10.015625q0 -1.609375 -0.265625 -2.3125q-0.25 -0.71875 -0.9375 -1.15625q-0.6875 -0.4375 -1.625 -0.4375q-1.671875 0 -2.78125 1.125q-1.109375 1.109375 -1.109375 3.5625l0 9.234375l-2.6875 0l0 -10.328125q0 -1.796875 -0.65625 -2.6875q-0.65625 -0.90625 -2.15625 -0.90625q-1.140625 0 -2.109375 0.609375q-0.96875 0.59375 -1.40625 1.75q-0.421875 1.140625 -0.421875 3.3125l0 8.25l-2.703125 0zm24.536926 -7.953125q0 -4.40625 2.453125 -6.53125q2.0625 -1.765625 5.0 -1.765625q3.28125 0 5.359375 2.15625q2.078125 2.140625 2.078125 5.921875q0 3.0625 -0.921875 4.828125q-0.90625 1.75 -2.671875 2.734375q-1.765625 0.96875 -3.84375 0.96875q-3.328125 0 -5.390625 -2.140625q-2.0625 -2.140625 -2.0625 -6.171875zm2.765625 0q0 3.0625 1.328125 4.578125q1.34375 1.515625 3.359375 1.515625q2.015625 0 3.34375 -1.515625q1.328125 -1.53125 1.328125 -4.65625q0 -2.953125 -1.34375 -4.46875q-1.328125 -1.53125 -3.328125 -1.53125q-2.015625 0 -3.359375 1.515625q-1.328125 1.515625 -1.328125 4.5625zm14.2057495 3.203125l2.671875 -0.421875q0.21875 1.609375 1.234375 2.46875q1.03125 0.84375 2.875 0.84375q1.859375 0 2.75 -0.75q0.90625 -0.765625 0.90625 -1.78125q0 -0.90625 -0.796875 -1.4375q-0.546875 -0.359375 -2.75 -0.90625q-2.96875 -0.75 -4.109375 -1.296875q-1.140625 -0.546875 -1.734375 -1.515625q-0.59375 -0.96875 -0.59375 -2.125q0 -1.0625 0.484375 -1.96875q0.484375 -0.90625 1.328125 -1.515625q0.625 -0.453125 1.703125 -0.765625q1.09375 -0.328125 2.34375 -0.328125q1.859375 0 3.265625 0.546875q1.421875 0.53125 2.09375 1.453125q0.6875 0.90625 0.9375 2.453125l-2.640625 0.359375q-0.171875 -1.21875 -1.03125 -1.90625q-0.859375 -0.703125 -2.4375 -0.703125q-1.859375 0 -2.65625 0.625q-0.78125 0.609375 -0.78125 1.4375q0 0.515625 0.328125 0.9375q0.328125 0.4375 1.03125 0.71875q0.40625 0.15625 2.375 0.6875q2.859375 0.765625 3.984375 1.25q1.140625 0.484375 1.78125 1.421875q0.640625 0.921875 0.640625 2.296875q0 1.34375 -0.78125 2.546875q-0.78125 1.1875 -2.265625 1.84375q-1.484375 0.640625 -3.359375 0.640625q-3.09375 0 -4.71875 -1.28125q-1.625 -1.296875 -2.078125 -3.828125zm22.296875 2.34375l0.390625 2.375q-1.140625 0.234375 -2.046875 0.234375q-1.453125 0 -2.265625 -0.453125q-0.8125 -0.46875 -1.140625 -1.21875q-0.328125 -0.765625 -0.328125 -3.1875l0 -9.140625l-1.984375 0l0 -2.09375l1.984375 0l0 -3.9375l2.671875 -1.625l0 5.5625l2.71875 0l0 2.09375l-2.71875 0l0 9.296875q0 1.140625 0.140625 1.484375q0.15625 0.328125 0.46875 0.515625q0.328125 0.1875 0.921875 0.1875q0.453125 0 1.1875 -0.09375zm2.595459 2.40625l0 -15.890625l2.4375 0l0 2.40625q0.921875 -1.6875 1.703125 -2.21875q0.796875 -0.546875 1.734375 -0.546875q1.359375 0 2.765625 0.859375l-0.921875 2.5q-0.984375 -0.578125 -1.984375 -0.578125q-0.875 0 -1.578125 0.53125q-0.703125 0.53125 -1.0 1.46875q-0.453125 1.4375 -0.453125 3.140625l0 8.328125l-2.703125 0zm20.61499 -1.953125q-1.5 1.265625 -2.890625 1.796875q-1.375 0.515625 -2.953125 0.515625q-2.625 0 -4.03125 -1.28125q-1.40625 -1.28125 -1.40625 -3.265625q0 -1.171875 0.53125 -2.140625q0.53125 -0.96875 1.390625 -1.546875q0.859375 -0.578125 1.9375 -0.875q0.796875 -0.21875 2.390625 -0.40625q3.265625 -0.390625 4.8125 -0.9375q0.015625 -0.546875 0.015625 -0.703125q0 -1.640625 -0.765625 -2.3125q-1.03125 -0.921875 -3.0625 -0.921875q-1.90625 0 -2.8125 0.671875q-0.90625 0.671875 -1.34375 2.359375l-2.625 -0.359375q0.359375 -1.6875 1.171875 -2.734375q0.828125 -1.046875 2.375 -1.59375q1.5625 -0.5625 3.609375 -0.5625q2.046875 0 3.3125 0.484375q1.28125 0.46875 1.875 1.203125q0.59375 0.71875 0.84375 1.828125q0.125 0.6875 0.125 2.484375l0 3.59375q0 3.75 0.171875 4.75q0.171875 1.0 0.6875 1.90625l-2.8125 0q-0.421875 -0.84375 -0.546875 -1.953125zm-0.21875 -6.03125q-1.46875 0.609375 -4.40625 1.03125q-1.65625 0.234375 -2.34375 0.53125q-0.6875 0.296875 -1.0625 0.875q-0.375 0.578125 -0.375 1.28125q0 1.078125 0.8125 1.796875q0.8125 0.71875 2.390625 0.71875q1.546875 0 2.765625 -0.671875q1.21875 -0.6875 1.78125 -1.875q0.4375 -0.90625 0.4375 -2.6875l0 -1.0zm6.8308105 7.984375l0 -21.9375l2.703125 0l0 21.9375l-2.703125 0z" fill-rule="nonzero"/><path fill="#000000" fill-opacity="0.0" d="m725.91077 240.28871l46.04724 0l0 56.56694l-46.04724 0z" fill-rule="evenodd"/><path fill="#ffffff" d="m735.1295 278.7287l5.8125 -8.265625l-5.375 -7.625l3.375 0l2.4375 3.71875q0.6875 1.0625 1.109375 1.78125q0.65625 -0.984375 1.203125 -1.75l2.6875 -3.75l3.21875 0l-5.5 7.484375l5.921875 8.40625l-3.3125 0l-3.265625 -4.9375l-0.859375 -1.328125l-4.1875 6.265625l-3.265625 0z" fill-rule="nonzero"/><path fill="#000000" fill-opacity="0.0" d="m365.90945 292.40945l46.04724 0l0 56.566925l-46.04724 0z" fill-rule="evenodd"/><path fill="#ffffff" d="m391.11258 317.9432l-14.5 0l0 -2.515625l14.5 0l0 2.515625zm0 6.671875l-14.5 0l0 -2.515625l14.5 0l0 2.515625z" fill-rule="nonzero"/><path fill="#eeeeee" d="m404.18372 247.51706l13.291351 -13.291336l13.291351 13.291336l-6.645691 0l0 55.40158l-13.291321 0l0 -55.40158z" fill-rule="evenodd"/><path stroke="#595959" stroke-width="1.0" stroke-linejoin="round" stroke-linecap="butt" d="m404.18372 247.51706l13.291351 -13.291336l13.291351 13.291336l-6.645691 0l0 55.40158l-13.291321 0l0 -55.40158z" fill-rule="evenodd"/><path fill="#000000" fill-opacity="0.0" d="m382.66666 157.99213l343.2441 0l0 56.566925l-343.2441 0z" fill-rule="evenodd"/><path fill="#ffe599" d="m391.66666 184.91212l315.6909 0l0 29.119995l-315.6909 0l0 -29.119995z" fill-rule="nonzero"/><path fill="#000000" fill-opacity="0.0" d="m391.66666 178.29465l315.6909 0l0 42.14543l-315.6909 0l0 -42.14543z" fill-rule="nonzero"/><path fill="#595959" d="m404.4479 205.08313q1.203125 -0.484375 2.359375 -0.890625q1.15625 -0.421875 2.203125 -0.421875q1.046875 0 1.046875 0.640625q0 0.15625 -0.078125 0.46875q-0.0625 0.3125 -0.796875 0.75q-0.71875 0.421875 -1.78125 0.8125q-1.046875 0.375 -2.296875 0.703125q-1.234375 0.328125 -2.421875 0.5625q-2.453125 0.5 -3.5 0.5q-1.03125 0 -2.234375 -0.234375q-1.1875 -0.234375 -2.234375 -0.765625q-2.390625 -1.25 -2.390625 -3.671875q0 -0.1875 0 -0.71875q0 -0.53125 0.4375 -1.515625q0.453125 -1.0 1.328125 -1.984375q0.890625 -1.0 2.078125 -1.828125q2.484375 -1.78125 5.21875 -2.3125q0.9375 -0.203125 1.578125 -0.203125q0.640625 0 1.046875 0.015625q0.421875 0.015625 0.859375 0.0625q0.453125 0.03125 0.78125 0.21875q0.765625 0.375 0.765625 1.5q0 0.71875 -1.0 1.390625q-0.28125 0.1875 -0.484375 0.328125q-0.140625 -0.671875 -0.390625 -1.140625q-0.234375 -0.484375 -1.03125 -0.484375q-3.484375 0.734375 -6.015625 2.21875q-2.84375 1.6875 -2.84375 3.5625q0 0.203125 0.03125 0.4375q0 1.890625 1.453125 2.703125q1.09375 0.578125 2.828125 0.578125q1.734375 0 3.0 -0.390625q1.28125 -0.40625 2.484375 -0.890625zm7.9576416 -2.5q0 -3.5 3.015625 -5.625q2.390625 -1.6875 5.78125 -2.046875q0.171875 0 0.8125 0q0.65625 0 1.75 0.390625q2.4375 0.828125 3.328125 2.921875q0.34375 0.828125 0.34375 1.40625q0 0.578125 -0.015625 0.8125q0 3.703125 -2.8125 5.84375q-2.609375 1.953125 -6.515625 1.953125q-2.828125 0 -4.265625 -1.296875q-1.421875 -1.3125 -1.421875 -4.359375zm2.03125 0.703125q0 1.84375 0.984375 2.5q0.734375 0.46875 2.484375 0.46875q1.75 0 3.078125 -0.265625q1.34375 -0.265625 2.375 -0.921875q2.21875 -1.421875 2.21875 -4.40625q0 -1.78125 -0.953125 -2.90625q-1.03125 -1.21875 -2.71875 -1.21875q-1.15625 0.203125 -2.328125 0.453125q-1.171875 0.234375 -2.203125 0.90625q-2.25 1.453125 -2.9375 5.390625zm25.825195 -1.5625q0 -3.53125 -0.375 -5.1875q0.234375 -0.4375 -0.71875 -0.4375q-1.0 0 -2.609375 0.5q-1.59375 0.5 -2.59375 1.0q-2.40625 1.15625 -2.671875 2.25l0 8.0625l-1.984375 0q-0.390625 -1.0 -0.390625 -5.65625q0 -4.140625 0.15625 -6.09375q0.171875 -1.96875 0.265625 -2.234375q0.765625 -0.5 1.25 -0.5q0.734375 0 0.734375 1.75q0 0.6875 -0.078125 1.328125q-0.0625 0.625 -0.0625 0.859375q4.796875 -3.515625 7.421875 -3.515625q3.0 0 3.40625 4.828125q0.1875 1.6875 0.1875 4.671875l-0.03125 2.34375q0 1.296875 0.0625 2.515625q-0.296875 0.171875 -0.484375 0.171875q-0.078125 -0.03125 -0.375 -0.09375q-0.296875 -0.046875 -0.78125 -0.078125q-0.296875 -1.1875 -0.328125 -2.40625q-0.015625 -1.234375 -0.015625 -2.265625l0.015625 -1.8125zm13.7421875 -1.15625q3.265625 0 3.265625 1.65625q0 1.25 -1.8125 2.90625q-2.6875 2.453125 -7.25 3.9375q-0.203125 0 -0.46875 -0.421875q-0.25 -0.40625 -0.390625 -0.625q-0.125 -0.234375 -0.171875 -0.28125q3.40625 -1.125 5.59375 -2.734375q1.484375 -1.0625 1.484375 -1.734375q0 -0.6875 -1.75 -0.6875q-1.75 0 -5.125 0.828125q-1.546875 -0.0625 -2.671875 -1.09375q-0.96875 -0.921875 -0.96875 -1.84375q0 -0.9375 0.53125 -1.71875q0.53125 -0.796875 1.421875 -1.46875q0.890625 -0.6875 2.0625 -1.25q2.90625 -1.390625 6.015625 -1.390625q0.921875 0 1.78125 0.171875q0.71875 0 0.828125 0.625q0.125 0.625 0.125 2.046875q-1.75 -0.796875 -3.9375 -0.796875q-2.734375 0 -4.515625 1.09375q-1.828125 1.0625 -1.890625 2.78125q0 0.828125 1.21875 0.828125l2.15625 -0.234375q2.78125 -0.59375 4.46875 -0.59375zm7.770172 -6.28125q0.375 5.546875 0.640625 12.828125q-0.171875 0.921875 -1.421875 0.921875q-0.3125 0 -0.65625 -0.125q-0.34375 -0.140625 -0.4375 -0.390625l0 -13.234375l1.875 0zm-2.765625 -4.03125q0 -1.03125 1.21875 -1.03125q0.796875 0 1.3125 0.359375q0.078125 0.328125 0.078125 0.640625q0 0.296875 -0.234375 0.59375q-0.234375 0.296875 -0.71875 0.296875q-0.46875 0 -0.9375 -0.21875q-0.46875 -0.21875 -0.71875 -0.640625zm18.700073 -5.828125q0 2.84375 -0.171875 5.5625q-0.15625 2.703125 -0.296875 5.296875q-0.125 2.578125 -0.125 5.5q0 2.921875 0.40625 6.171875q0 0.6875 -0.25 0.984375q-0.25 0.296875 -0.84375 0.296875q-1.390625 0 -1.390625 -2.3125l0 -0.984375q-4.203125 3.140625 -7.109375 3.140625q-1.15625 0 -2.359375 -0.5625q-1.1875 -0.5625 -2.25 -2.28125q-0.15625 -0.703125 -0.15625 -1.4375q0 -0.75 0.28125 -1.796875q0.28125 -1.046875 1.15625 -2.171875q0.875 -1.125 2.125 -1.984375q2.71875 -1.84375 5.890625 -1.84375q1.359375 0 2.609375 0.421875q0 -0.546875 0.0625 -1.875q0.078125 -1.328125 0.171875 -2.8125q0.171875 -3.84375 0.234375 -4.53125q0.0625 -0.703125 0.15625 -1.1875q0.109375 -0.5 0.3125 -0.859375q0.453125 -0.734375 1.546875 -0.734375zm-12.390625 19.125q0 2.34375 1.6875 2.34375q0.28125 0 0.59375 -0.0625q1.21875 0 3.0 -0.703125q3.375 -1.328125 4.109375 -2.3125l0 -3.9375q0 -1.03125 -1.6875 -1.03125q-0.203125 -0.03125 -0.546875 -0.03125q-0.34375 0 -1.0625 0.15625q-0.703125 0.140625 -1.59375 0.53125q-0.875 0.375 -1.734375 0.9375q-1.8125 1.21875 -2.5 2.84375q-0.265625 0.625 -0.265625 1.265625zm19.970947 2.578125q2.609375 0 7.84375 -2.359375q0.328125 0 0.53125 0.21875q0.21875 0.21875 0.21875 0.515625q-1.1875 2.015625 -4.546875 3.140625q-3.34375 1.125 -6.234375 0.390625q-3.296875 -0.859375 -4.0 -3.703125q-0.0625 -0.5625 -0.0625 -1.515625q0 -0.953125 0.484375 -2.5q0.484375 -1.5625 1.671875 -2.953125q1.1875 -1.390625 2.78125 -2.1875q1.609375 -0.796875 3.40625 -0.796875q1.71875 0 3.859375 1.1875q1.0 0.5625 1.59375 1.28125q0.59375 0.703125 0.59375 1.4375q0 0.203125 -0.03125 0.421875q-0.0625 1.796875 -1.75 2.265625q-0.734375 0.21875 -1.71875 0.21875l-4.25 -0.1875q-2.140625 0 -3.265625 0.921875q-0.65625 0.5 -0.921875 1.515625q0.75 2.6875 3.796875 2.6875zm5.28125 -9.140625q-0.65625 -0.484375 -1.375 -0.6875q-0.703125 -0.203125 -1.1875 -0.203125q-0.46875 0 -1.546875 0.3125q-1.0625 0.3125 -1.890625 0.6875q-2.03125 0.953125 -2.03125 1.984375q2.359375 0.203125 3.546875 0.203125q3.28125 0 4.4375 -0.5625q0.71875 -0.296875 0.71875 -0.734375q0 -0.53125 -0.671875 -1.0zm19.62674 0.40625q-1.25 -0.890625 -3.203125 -0.890625q-1.828125 0 -3.40625 0.6875q-2.953125 1.234375 -4.0625 3.203125q-0.46875 0.875 -0.46875 1.890625q0 0.171875 0 1.0q0 0.8125 0.296875 2.1875q0.296875 1.375 0.296875 2.796875q-0.625 0.03125 -1.015625 0.140625q-0.375 0.125 -0.640625 0.125q-0.265625 0 -0.46875 -0.234375q-0.1875 -0.234375 -0.421875 -0.921875q-0.03125 -0.171875 -0.125 -1.0q-0.078125 -0.84375 -0.21875 -2.015625q-0.125 -1.1875 -0.296875 -2.59375q-0.15625 -1.40625 -0.3125 -2.78125q-0.3125 -2.953125 -0.5 -4.34375q0 -0.71875 1.046875 -0.71875q0.609375 0 0.96875 0.53125q0.359375 0.515625 0.5625 1.1875q0.203125 0.65625 0.28125 1.3125q0.078125 0.640625 0.140625 0.90625q3.90625 -3.484375 9.703125 -3.484375q0.65625 0 1.375 0.03125q0.171875 -0.03125 0.4375 -0.03125q0.265625 0 0.53125 0.359375q0.328125 0.40625 0.328125 1.0q0 1.484375 -0.828125 1.65625zm13.827545 5.890625q-2.21875 3.5 -5.921875 4.328125q-0.859375 0.171875 -1.5625 0.171875q-0.6875 0 -1.15625 0q-0.453125 -0.015625 -1.015625 -0.140625q-0.5625 -0.125 -1.03125 -0.390625q-1.09375 -0.609375 -1.09375 -1.734375q-0.125 -0.546875 -0.125 -1.203125q0 -0.671875 0.296875 -1.765625q0.296875 -1.09375 1.078125 -2.359375q0.78125 -1.28125 1.921875 -2.34375q2.328125 -2.25 5.0625 -2.90625q0.796875 -0.1875 1.453125 -0.1875q0.671875 0 1.203125 0.09375q1.71875 0 2.3125 2.34375q0.390625 1.484375 0.453125 4.140625q0.078125 2.640625 0.15625 4.078125q0.078125 1.4375 0.375 2.625l-1.75 0q-0.125 -0.8125 -0.1875 -1.421875q-0.046875 -0.625 -0.109375 -1.15625q-0.15625 -1.25 -0.359375 -2.171875zm-0.109375 -4.578125q0 -1.71875 -1.703125 -1.71875q-0.203125 -0.03125 -0.40625 -0.03125q-2.15625 0 -4.5625 2.0625q-1.125 0.953125 -1.921875 2.140625q-1.1875 1.6875 -1.1875 3.015625q0 1.75 2.015625 2.078125q2.671875 -0.0625 5.09375 -2.4375q1.03125 -1.03125 1.71875 -2.25q0.953125 -1.625 0.953125 -2.859375zm18.446228 -1.3125q-1.25 -0.890625 -3.203125 -0.890625q-1.828125 0 -3.40625 0.6875q-2.953125 1.234375 -4.0625 3.203125q-0.46875 0.875 -0.46875 1.890625q0 0.171875 0 1.0q0 0.8125 0.296875 2.1875q0.296875 1.375 0.296875 2.796875q-0.625 0.03125 -1.015625 0.140625q-0.375 0.125 -0.640625 0.125q-0.265625 0 -0.46875 -0.234375q-0.1875 -0.234375 -0.421875 -0.921875q-0.03125 -0.171875 -0.125 -1.0q-0.078125 -0.84375 -0.21875 -2.015625q-0.125 -1.1875 -0.296875 -2.59375q-0.15625 -1.40625 -0.3125 -2.78125q-0.3125 -2.953125 -0.5 -4.34375q0 -0.71875 1.046875 -0.71875q0.609375 0 0.96875 0.53125q0.359375 0.515625 0.5625 1.1875q0.203125 0.65625 0.28125 1.3125q0.078125 0.640625 0.140625 0.90625q3.90625 -3.484375 9.703125 -3.484375q0.65625 0 1.375 0.03125q0.171875 -0.03125 0.4375 -0.03125q0.265625 0 0.53125 0.359375q0.328125 0.40625 0.328125 1.0q0 1.484375 -0.828125 1.65625zm13.827515 5.890625q-2.21875 3.5 -5.921875 4.328125q-0.859375 0.171875 -1.5625 0.171875q-0.6875 0 -1.15625 0q-0.453125 -0.015625 -1.015625 -0.140625q-0.5625 -0.125 -1.03125 -0.390625q-1.09375 -0.609375 -1.09375 -1.734375q-0.125 -0.546875 -0.125 -1.203125q0 -0.671875 0.296875 -1.765625q0.296875 -1.09375 1.078125 -2.359375q0.78125 -1.28125 1.921875 -2.34375q2.328125 -2.25 5.0625 -2.90625q0.796875 -0.1875 1.453125 -0.1875q0.671875 0 1.203125 0.09375q1.71875 0 2.3125 2.34375q0.390625 1.484375 0.453125 4.140625q0.078125 2.640625 0.15625 4.078125q0.078125 1.4375 0.375 2.625l-1.75 0q-0.125 -0.8125 -0.1875 -1.421875q-0.046875 -0.625 -0.109375 -1.15625q-0.15625 -1.25 -0.359375 -2.171875zm-0.109375 -4.578125q0 -1.71875 -1.703125 -1.71875q-0.203125 -0.03125 -0.40625 -0.03125q-2.15625 0 -4.5625 2.0625q-1.125 0.953125 -1.921875 2.140625q-1.1875 1.6875 -1.1875 3.015625q0 1.75 2.015625 2.078125q2.671875 -0.0625 5.09375 -2.4375q1.03125 -1.03125 1.71875 -2.25q0.953125 -1.625 0.953125 -2.859375zm6.368164 9.03125q-1.21875 0.5 -1.625 0.5q-0.390625 0 -0.546875 -0.078125q-0.140625 -0.09375 -0.328125 -0.421875q0 -0.984375 0.078125 -2.453125q0.078125 -1.484375 0.125 -3.171875q0.0625 -1.703125 0.0625 -3.40625q0 -1.71875 -0.171875 -3.140625q0 -0.953125 1.265625 -0.953125q0.296875 0 0.453125 1.0625q0.171875 1.0625 0.25 1.65625q0.078125 0.59375 0.140625 0.859375q0.765625 -1.390625 3.046875 -2.1875q1.21875 -0.390625 2.28125 -0.390625q1.0625 0 1.875 0.265625q0.8125 0.25 1.390625 0.921875q0.578125 0.65625 0.578125 1.75q0.765625 -1.453125 3.46875 -2.609375q2.453125 -1.09375 4.40625 -1.09375q2.8125 0 2.765625 2.140625l0.609375 11.015625q0 0.140625 -0.859375 0.203125q-1.65625 0.125 -1.65625 -0.296875q-0.03125 -0.59375 -0.03125 -1.1875l0.15625 -4.765625q0 -3.34375 -0.65625 -5.296875q-1.953125 0.140625 -3.0 0.640625q-1.046875 0.484375 -1.859375 1.21875q-0.796875 0.71875 -1.421875 1.921875q-1.390625 2.734375 -1.390625 7.234375q-0.171875 0.625 -1.15625 0.625q-0.640625 0 -1.0625 -0.21875q-0.40625 -0.234375 -0.328125 -0.40625q0.5625 -3.140625 0.5625 -4.890625q0 -1.390625 -0.28125 -2.640625q-0.28125 -1.265625 -0.6875 -2.890625q-4.265625 0 -5.75 3.40625q-0.65625 1.5 -0.734375 2.828125q-0.0625 1.3125 -0.0625 2.25q0 0.921875 0.09375 2.0zm36.123047 -11.40625q4.03125 -1.390625 6.96875 -1.390625q3.71875 0 4.96875 1.953125q0.5625 0.921875 0.5625 1.984375q0 1.484375 -0.9375 3.0625q-0.921875 1.5625 -2.46875 2.828125q-3.578125 2.9375 -8.703125 3.640625q0 0.328125 0.015625 1.046875q0.015625 0.734375 0.03125 1.625q0.015625 0.890625 0.015625 1.890625q0.015625 1.015625 0.046875 1.921875q0.09375 2.28125 0.140625 2.609375q0.046875 0.328125 0.046875 0.53125q0 0.75 -0.484375 1.109375q-0.46875 0.375 -1.234375 0.375q-0.15625 0 -0.296875 0l-0.46875 -23.8125q0.265625 -0.390625 0.703125 -0.359375q0.4375 0.03125 0.703125 0.25q0.28125 0.203125 0.390625 0.734375zm8.65625 1.03125q-0.984375 -0.5 -2.09375 -0.5q-1.109375 0 -2.203125 0.203125q-2.484375 0.484375 -3.671875 2.109375q-0.53125 0.765625 -0.53125 1.890625q0 0.125 0 0.234375l0 5.125q6.09375 -1.359375 8.640625 -3.78125q1.484375 -1.390625 1.484375 -2.875q0 -1.578125 -1.625 -2.40625zm19.509338 6.734375q-0.703125 0 -0.703125 -1.046875q0 -0.09375 0.1875 -0.28125q0.1875 -0.1875 0.3125 -0.1875q2.28125 -0.390625 4.203125 -0.59375q3.703125 -0.4375 5.8125 -0.859375q1.0 0 1.0 1.0625q0 0.203125 -0.03125 0.421875q-1.6875 0 -2.984375 0.234375q-1.28125 0.234375 -2.46875 0.5q-3.109375 0.75 -5.328125 0.75zm0.59375 -3.890625l-0.53125 0.03125q-0.890625 0 -0.953125 -0.53125l0.59375 -1.0625q0.09375 -0.09375 2.4375 -0.359375q4.859375 -0.5 5.8125 -0.671875q0.96875 -0.1875 1.140625 -0.1875q0.171875 0 0.390625 0.140625q0.234375 0.125 0.234375 0.421875q0 0.734375 -0.5 1.0625l-8.625 1.15625zm24.492126 -0.5625l0.203125 -2.046875q0.21875 -1.71875 0.484375 -4.140625l0.359375 -2.96875q0.109375 -0.375 0.359375 -0.4375q0.25 -0.0625 0.6875 -0.0625q0.453125 0 0.65625 0.234375q0.21875 0.21875 0.234375 0.546875q0.015625 0.3125 -0.078125 0.734375q-0.09375 0.40625 -0.09375 0.796875q2.078125 0 4.125 -0.4375q2.0625 -0.453125 4.109375 -0.984375q2.046875 -0.53125 4.09375 -0.96875q2.046875 -0.453125 4.109375 -0.453125q0.296875 0 0.546875 0.078125q0.25 0.078125 0.40625 0.484375q-0.125 0.359375 -0.421875 0.59375q-0.296875 0.234375 -1.0 0.484375q-0.6875 0.234375 -1.875 0.484375q-1.171875 0.25 -3.046875 0.65625q-1.859375 0.390625 -4.546875 0.953125q-2.671875 0.5625 -6.3125 1.390625l0 3.796875q0.9375 -0.09375 2.15625 -0.296875q2.25 -0.390625 3.4375 -0.390625q1.1875 0 1.96875 0.03125q0.78125 0.03125 1.796875 0.421875q2.15625 0.828125 2.421875 3.40625q0 1.859375 -1.03125 3.15625q-1.015625 1.28125 -2.546875 2.046875q-2.90625 1.453125 -6.75 1.453125q-0.84375 0 -1.203125 -0.171875q-0.34375 -0.1875 -0.34375 -0.78125q0 -0.59375 0.46875 -1.125q0.484375 -0.53125 1.078125 -0.53125l0 0.53125q3.484375 0 5.015625 -0.484375q1.546875 -0.484375 2.453125 -1.359375q0.90625 -0.875 0.90625 -2.171875q0 -1.3125 -0.53125 -1.90625q-0.53125 -0.59375 -1.3125 -0.890625q-1.171875 -0.46875 -2.6875 -0.46875q-1.515625 0 -2.28125 0.234375q-0.765625 0.234375 -1.515625 0.53125q-1.984375 0.75 -3.015625 0.75l-0.46875 0q-1.015625 0 -1.015625 -0.71875zm24.11316 7.265625q-1.0625 -0.6875 -1.6875 -1.703125q-0.625 -1.03125 -0.625 -2.203125q0 -1.1875 0.359375 -2.8125q0.359375 -1.640625 0.90625 -3.03125q0.546875 -1.390625 1.328125 -2.6875q0.78125 -1.3125 1.796875 -2.3125q2.21875 -2.171875 5.03125 -2.171875q3.78125 0 5.796875 2.78125q1.875 2.53125 1.875 6.25q0 4.421875 -2.8125 6.875q-2.765625 2.375 -7.328125 2.375q-2.625 0 -4.640625 -1.359375zm-0.5625 -4.125q0 4.0 5.6875 4.0q4.078125 0 6.140625 -2.09375q2.0625 -2.109375 2.0625 -5.984375q0 -0.125 0 -0.25q0 -3.40625 -1.6875 -5.203125q-1.6875 -1.8125 -4.625 -1.8125q-0.328125 0 -0.578125 0q-0.25 0 -0.453125 0q-1.578125 0 -3.109375 2.140625q-1.453125 1.953125 -2.484375 5.0q-0.953125 2.78125 -0.953125 4.203125zm26.367126 3.734375q-0.609375 -0.4375 -0.875 -0.875q-0.265625 -0.453125 -0.265625 -1.234375q0 -0.796875 0.359375 -1.390625q0.59375 -0.96875 1.78125 -0.96875q0.765625 0 1.453125 0.34375q1.390625 0.75 1.5 2.109375q0 1.484375 -0.625 1.96875q-0.609375 0.484375 -1.796875 0.484375q-0.921875 0 -1.53125 -0.4375zm2.5625 -2.515625q-0.640625 -0.6875 -1.453125 -0.6875q-0.90625 0 -1.09375 0.859375q0 0.125 0 0.40625q0 0.28125 0.359375 0.84375q0.53125 0.4375 1.0625 0.5q1.0625 0.125 1.3125 -0.859375q0 -0.140625 0 -0.390625q0 -0.265625 -0.1875 -0.671875zm-10.609375 -8.703125q-0.609375 -0.453125 -0.875 -0.890625q-0.265625 -0.453125 -0.265625 -1.234375q0 -0.78125 0.359375 -1.375q0.578125 -0.984375 1.765625 -0.984375q0.78125 0 1.453125 0.359375q1.390625 0.734375 1.515625 2.109375q0 1.46875 -0.625 1.96875q-0.625 0.484375 -1.8125 0.484375q-0.90625 0 -1.515625 -0.4375zm2.5625 -2.53125q-0.65625 -0.671875 -1.453125 -0.671875q-0.921875 0 -1.09375 0.890625q0 0.078125 0 0.359375q0 0.28125 0.34375 0.84375q0.546875 0.453125 1.0625 0.515625q0.515625 0.046875 0.84375 -0.1875q0.46875 -0.34375 0.46875 -0.828125q0 -0.5 -0.171875 -0.921875zm-2.34375 15.34375q-0.4375 0 -0.4375 -0.796875l0 -0.265625q0 -0.96875 5.0 -8.859375q2.984375 -4.703125 4.15625 -6.21875q1.171875 -1.53125 1.296875 -1.53125q0.140625 -0.09375 0.234375 -0.09375q0.109375 0 0.109375 0.3125q0 0.3125 -0.453125 1.34375q-0.453125 1.03125 -1.1875 2.390625q-0.71875 1.34375 -1.59375 2.890625q-0.875 1.53125 -1.875 3.15625q-0.984375 1.609375 -1.9375 3.0625q-2.15625 3.28125 -3.3125 4.609375z" fill-rule="nonzero"/><path fill="#000000" fill-opacity="0.0" d="m707.35754 178.29465l0 0l0 42.14543l0 0l0 -42.14543z" fill-rule="nonzero"/><path fill="#000000" fill-opacity="0.0" d="m124.32809 221.70604l85.48031 0l0 56.56694l-85.48031 0z" fill-rule="evenodd"/><path fill="#ffe599" d="m133.32808 248.62604l53.93312 0l0 29.119995l-53.93312 0l0 -29.119995z" fill-rule="nonzero"/><path fill="#000000" fill-opacity="0.0" d="m133.32808 242.00856l53.93312 0l0 42.14543l-53.93312 0l0 -42.14543z" fill-rule="nonzero"/><path fill="#595959" d="m151.12495 262.0314q0.15625 0 0.15625 0.796875q0 0.796875 0.046875 1.09375l-10.15625 1.25l0.53125 6.578125l-2.390625 -0.125q0 -2.671875 -0.59375 -6.09375l-3.84375 1.46875q-0.390625 0 -0.65625 -0.4375q-0.46875 -0.765625 -0.46875 -1.390625l4.5 -1.609375q-0.59375 -5.09375 -0.59375 -8.26561q0 -3.1875 0.53125 -4.96875q0.53125 -1.78125 1.546875 -2.375q1.03125 -0.609375 2.1875 -0.609375q1.15625 0 2.34375 0.5q1.203125 0.5 2.296875 1.28125q1.09375 0.765625 1.859375 1.734375q0.78125 0.953125 0.78125 1.875q0 0.703125 -0.140625 1.0q-1.1875 -1.65625 -2.875 -2.953125q-2.015625 -1.546875 -3.796875 -1.546875q-1.6875 0 -2.25 2.40625q-0.265625 1.234375 -0.265625 3.5q0 2.2656097 0.109375 4.1562347q0.125 1.875 0.71875 3.765625q1.84375 0 4.109375 -0.328125q4.390625 -0.671875 6.3125 -0.703125zm3.6791992 -4.03125q0.375 5.546875 0.640625 12.828125q-0.171875 0.921875 -1.421875 0.921875q-0.3125 0 -0.65625 -0.125q-0.34375 -0.140625 -0.4375 -0.390625l0 -13.234375l1.875 0zm-2.765625 -4.0312347q0 -1.03125 1.21875 -1.03125q0.796875 0 1.3125 0.359375q0.078125 0.328125 0.078125 0.640625q0 0.296875 -0.234375 0.59375q-0.234375 0.296875 -0.71875 0.296875q-0.46875 0 -0.9375 -0.21875q-0.46875 -0.21875 -0.71875 -0.640625zm4.653183 17.062485q1.453125 -1.453125 2.9375 -3.3125q1.484375 -1.875 1.8125 -2.484375l-2.5 -2.734375q-0.46875 -0.5 -0.921875 -1.0q-0.4375 -0.5 -0.796875 -0.890625q-0.34375 -0.390625 -0.5625 -0.65625l-0.203125 -0.234375l1.71875 -1.828125q1.328125 1.625 1.96875 2.46875q0.640625 0.84375 1.03125 1.34375q0.640625 0.828125 1.890625 2.046875q0.40625 -0.59375 1.484375 -2.140625q1.765625 -2.625 2.84375 -3.90625q0.671875 0 1.078125 0.484375q0.421875 0.46875 0.421875 0.875q-0.765625 1.65625 -2.21875 3.5q-0.53125 0.65625 -0.984375 1.265625q-0.4375 0.59375 -0.703125 1.3125q1.8125 1.265625 4.328125 4.328125q0.5625 0.671875 0.796875 1.03125q0 0.203125 -0.328125 0.625q-0.5 0.703125 -0.890625 0.890625q-0.5625 -0.265625 -1.171875 -0.953125q-0.59375 -0.703125 -1.28125 -1.53125q-0.6875 -0.84375 -1.421875 -1.671875q-0.71875 -0.828125 -1.515625 -1.359375q-0.671875 0.765625 -1.890625 2.21875q-2.21875 2.671875 -2.96875 3.203125q-0.5625 0.125 -1.59375 -0.53125q-0.265625 -0.15625 -0.359375 -0.359375zm15.056793 -4.734375q0 -3.5 3.015625 -5.625q2.390625 -1.6875 5.78125 -2.046875q0.171875 0 0.8125 0q0.65625 0 1.75 0.390625q2.4375 0.828125 3.328125 2.921875q0.34375 0.828125 0.34375 1.40625q0 0.578125 -0.015625 0.8125q0 3.703125 -2.8125 5.84375q-2.609375 1.953125 -6.515625 1.953125q-2.828125 0 -4.265625 -1.296875q-1.421875 -1.3125 -1.421875 -4.359375zm2.03125 0.703125q0 1.84375 0.984375 2.5q0.734375 0.46875 2.484375 0.46875q1.75 0 3.078125 -0.265625q1.34375 -0.265625 2.375 -0.921875q2.21875 -1.421875 2.21875 -4.40625q0 -1.78125 -0.953125 -2.90625q-1.03125 -1.21875 -2.71875 -1.21875q-1.15625 0.203125 -2.328125 0.453125q-1.171875 0.234375 -2.203125 0.90625q-2.25 1.453125 -2.9375 5.390625z" fill-rule="nonzero"/><path fill="#000000" fill-opacity="0.0" d="m187.2612 242.00856l0 0l0 42.14543l0 0l0 -42.14543z" fill-rule="nonzero"/><path fill="#eeeeee" d="m780.68506 289.6273l-13.291382 13.291351l-13.291321 -13.291351l6.645691 0l0 -55.401566l13.291321 0l0 55.401566z" fill-rule="evenodd"/><path stroke="#595959" stroke-width="1.0" stroke-linejoin="round" stroke-linecap="butt" d="m780.68506 289.6273l-13.291382 13.291351l-13.291321 -13.291351l6.645691 0l0 -55.401566l13.291321 0l0 55.401566z" fill-rule="evenodd"/><path fill="#eeeeee" d="m547.3018 336.6824l13.291382 -13.291321l13.291321 13.291321l-6.645691 0l0 55.40158l-13.291321 0l0 -55.40158z" fill-rule="evenodd"/><path stroke="#595959" stroke-width="1.0" stroke-linejoin="round" stroke-linecap="butt" d="m547.3018 336.6824l13.291382 -13.291321l13.291321 13.291321l-6.645691 0l0 55.40158l-13.291321 0l0 -55.40158z" fill-rule="evenodd"/></g></svg>